SplineFontDB: 3.0
FontName: AdlamCWC
FullName: AdlamCWC
FamilyName: AdlamCWC
Weight: Regular
Copyright: Copyright (c) 2016, Craig Cornelius
UComments: "2016-12-21: Created with FontForge (http://fontforge.org)"
FontLog: "Adlam font, based on shapes from Unicode proposal http://www.unicode.org/L2/L2014/14219r-n4628-adlam.pdf.+AAoACgAA-Craig Cornelius+AAoA"
Version: 001.000
ItalicAngle: 0
UnderlinePosition: -102
UnderlineWidth: 51
Ascent: 819
Descent: 205
InvalidEm: 0
LayerCount: 2
Layer: 0 0 "Back" 1
Layer: 1 0 "Fore" 0
XUID: [1021 542 1552056636 9137163]
FSType: 0
OS2Version: 0
OS2_WeightWidthSlopeOnly: 0
OS2_UseTypoMetrics: 1
CreationTime: 1482387637
ModificationTime: 1485051811
PfmFamily: 17
TTFWeight: 400
TTFWidth: 5
LineGap: 92
VLineGap: 92
OS2TypoAscent: 0
OS2TypoAOffset: 1
OS2TypoDescent: 0
OS2TypoDOffset: 1
OS2TypoLinegap: 92
OS2WinAscent: 0
OS2WinAOffset: 1
OS2WinDescent: 0
OS2WinDOffset: 1
HheadAscent: 0
HheadAOffset: 1
HheadDescent: 0
HheadDOffset: 1
OS2CapHeight: 0
OS2XHeight: 0
OS2Vendor: 'PfEd'
Lookup: 3 5 0 "Alternate Substitution in Arabic lookup 0" { "Alternate Substitution in Arabic lookup 0-1"  } ['    ' ('DFLT' <'dflt' > 'arab' <'dflt' > ) ]
Lookup: 258 0 0 "Alif +- lengthener" { "Alif +- lengthener" [150,15,0] } []
Lookup: 260 0 0 "'mark' Mark Positioning lookup 0" { "'mark' Mark Positioning lookup 0-1"  } ['mark' ('DFLT' <'dflt' > ) ]
MarkAttachClasses: 1
MarkAttachSets: 1
"" 0 
DEI: 91125
LangName: 1033
Encoding: Custom
UnicodeInterp: none
NameList: AGL For New Fonts
DisplaySize: -48
AntiAlias: 1
FitToEm: 1
WinInfo: 0 16 13
BeginPrivate: 0
EndPrivate
TeXData: 1 0 0 346030 173015 115343 0 1048576 115343 783286 444596 497025 792723 393216 433062 380633 303038 157286 324010 404750 52429 2506097 1059062 262144
AnchorClass2: "MyAnchor1" "'mark' Mark Positioning lookup 0-1" 
BeginChars: 172 92

StartChar: ADLAM_CAPITAL_LETTER_ALIF
Encoding: 0 125184 0
Width: 741
VWidth: 0
GlyphClass: 2
Flags: HW
HStem: -19 66<-34.3398 488.375> 671 68<116.935 143.83>
VStem: 162 69<136.393 374.372> 557 80<126.601 320.44>
AnchorPoint: "MyAnchor1" 457 791 basechar 0
LayerCount: 2
Back
Fore
SplineSet
394 -19 m 0
 386.232421875 -19 378.201171875 -17.435546875 370 -17.435546875 c 3
 281.05859375 -17.435546875 172.071289062 63.091796875 162 140 c 0
 160 155 148 671 141 671 c 1
 134 676 98 696 98 705 c 1
 98 705 149 739 177 739 c 0
 194 739 206 706 219 706 c 0
 231 706 231 399 231 218 c 0
 231 112 324 47 411 47 c 0
 486 47 557 96 557 211 c 0
 557 217 557 224 557 230 c 0
 550 376 444 418 359 418 c 0
 325 418 294 411 274 402 c 9
 367 480 l 17
 434 473 501 460 562 460 c 0
 587 460 612 465 641 476 c 9
 567 402 l 17
 567 401 l 0
 567 390 635 397 637 247 c 0
 637 246 637 245 637 244 c 0
 637 91 541 -19 394 -19 c 0
EndSplineSet
Validated: 524289
Comment: "Adlam script letter alif."
EndChar

StartChar: ADLAM_CAPITAL_LETTER_DAALI
Encoding: 1 125185 1
Width: 689
VWidth: 0
GlyphClass: 2
Flags: HW
HStem: -3 70<210.858 455.901>
VStem: 116 69<388.84 646> 124 72<374.164 517.499 522.042 646> 472 84<425.792 648> 486 70<207.838 436.208>
LayerCount: 2
Back
Fore
SplineSet
138 14 m 1x88
 148 30 170 72 206 80 c 1
 310 80 391 67 439 67 c 0
 471 67 489.018554688 71.046875 488 82 c 0
 484 125 424 172 288 249 c 0
 194.823242188 301.754882812 139 304 124 362 c 0xa8
 118 386 116 437 116 488 c 0
 116 518 116 548 116 571 c 0xc0
 116 596 117 622 117 646 c 9
 98 660 l 25
 196 722 l 17xa0
 196 642 185 584 185 519 c 0xc0
 185 487 188 453 196 414 c 8
 212 344 336 298 388 258 c 0
 418 234 470 200 486 200 c 0
 491 200 486 204 486 214 c 2xa8
 472 648 l 25x90
 458 658 l 25
 556 722 l 25
 556 60 l 17
 569 54 589 48 589 42 c 0
 589 28 557 14 544 0 c 9
 502 2 l 25
 494 40 l 25
 456 0 l 18
 454 -2 445 -3 432 -3 c 0
 423 -3 414 -3 404 -3 c 0
 319 -3 212 -2 138 14 c 1x88
EndSplineSet
Validated: 524321
EndChar

StartChar: glyph35
Encoding: -1 52 2
Width: 1000
VWidth: 0
LayerCount: 2
Back
SplineSet
432 0 m 0
 568 0 697.991515935 109.862133939 706 240 c 0
 714 370 592 351 640 398 c 26
 714 470 l 25
 673 464 651.00702772 454.650905202 610 454 c 0
 547 453 462.626448737 475.134026746 450 466 c 10
 356 398 l 17
 428 406 471 428 526 392 c 24
 590 350 633 298 626 222 c 24
 618 135 581 44 494 42 c 24
 396 40 338 120 310 214 c 24
 257 392 314 504 302 690 c 0
 300.442800441 714.136593163 272 720 248 718 c 24
 218 716 207 696 180 682 c 25
 222 656 l 18
 225.373770492 653.91147541 228 310 246 122 c 1028
EndSplineSet
Fore
Validated: 1
EndChar

StartChar: ADLAM_CAPITAL_LETTER_LAAM
Encoding: 2 125186 4
Width: 749
VWidth: 0
GlyphClass: 2
Flags: HW
HStem: 18 77<134.281 292.605> 727 47<275.219 476.667>
VStem: 120 61<386.825 591.391> 574 75<110.254 474.569>
LayerCount: 2
Back
Fore
SplineSet
98 20 m 17
 98 20 139 95 165 95 c 0
 166 95 166 95 167 95 c 0
 433 55 569 -11 569 214 c 0
 569 279 574 351 574 421 c 0
 574 582 549 727 385 727 c 0
 384 727 384 727 383 727 c 0
 214 726 181 610 181 553 c 0
 181 495 195 435 195 397 c 0
 195 373 189 358 170 358 c 0
 133 358 120 425 120 468 c 0
 120 626 226 774 336 774 c 0
 549 774 616 732 635 544 c 0
 638 516 649 354 649 229 c 0
 649 165 646 110 638 89 c 9
 638 89 602 5 573 5 c 1
 569 -1 553 -4 529 -4 c 0
 456 -4 314 18 245 18 c 0
 192 18 145 4 113 -2 c 25
 98 20 l 17
EndSplineSet
Validated: 33
EndChar

StartChar: ADLAM_CAPITAL_LETTER_MIIM
Encoding: 3 125187 5
Width: 824
VWidth: 0
GlyphClass: 2
Flags: W
HStem: -15 88<157.242 456.472> -5 55<372.551 665.705> 210 73<307.829 496.031> 705 62<315.799 514.968>
VStem: 111 70<377.723 569.392> 679 58<65.9259 284.166>
LayerCount: 2
Back
Fore
SplineSet
467 283 m 0x3c
 540 283 575 313 613 366 c 0
 634 395 647 456 647 510 c 0
 647 552 639 590 621 609 c 0
 579 653 522 705 393 705 c 0
 308 705 231 676 201 592 c 0
 189 557 181 515 181 475 c 0
 181 418 197 364 235 338 c 0
 300 294 394 283 467 283 c 0x3c
103 -15 m 2xbc
 102 -15 l 0
 96 -15 94 -12 94 -8 c 0
 94 10 141 57 157 68 c 0
 162 72 178 73 201 73 c 0xbc
 291 73 492 50 598 50 c 0
 635 50 660 53 666 60 c 0
 675 72 679 95 679 122 c 0
 679 207 644 339 644 339 c 2
 644 344 642 346 639 346 c 0
 615 346 512 210 436 210 c 0
 287 210 115 277 111 452 c 0
 111 455 111 457 111 460 c 0
 111 548 143 610 210 673 c 0
 275 734 338 767 425 767 c 0
 432 767 439 767 446 767 c 8
 565 759 714 694 721 638 c 0
 727 592 737 414 737 269 c 0
 737 188 734 118 725 87 c 0
 718 62 685 24 640 -5 c 0x7c
 103 -15 l 2xbc
EndSplineSet
Validated: 1
EndChar

StartChar: ADLAM_CAPITAL_LETTER_BA
Encoding: 4 125188 6
Width: 762
VWidth: 0
GlyphClass: 2
Flags: HW
HStem: 0 21G<135 135> 289 65<198.151 350.667> 692 49<449.244 561.071>
VStem: 126 59<446.143 706.435> 364 37<366.455 628.779> 606 58<468.67 642.776>
LayerCount: 2
Back
SplineSet
345.551757812 256 m 1050
196.047851562 59.3916015625 m 1050
EndSplineSet
Fore
SplineSet
419 357 m 0
 507 377 595 440 605 530 c 0
 606 539 606 548 606 557 c 0
 606 644 556 692 505 692 c 0
 453 692 401 643 401 534 c 0
 401 512 403 487 408 460 c 0
 417 405 411 357 419 357 c 0
171 760 m 0
 185 760 192 743 192 688 c 0
 192 649 185 514 185 435 c 0
 185 400 186 377 190 377 c 2
 190 377 276 354 324 354 c 0
 340 354 352 358 354 365 c 0
 362 396 364 429 364 464 c 0
 364 508 357 553 357 594 c 0
 357 614 359 634 364 651 c 0
 384 719 426 741 520 741 c 0
 614 741 663 633 664 586 c 0
 664 585 664 583 664 582 c 0
 664 490 646 464 598 412 c 24
 542 351 411 307 411 307 c 1
 411 190 l 18
 411 155 444 148 485 148 c 0
 514 148 547 151 575 151 c 0
 595 151 613 149 626 143 c 0
 634 138 637 130 637 120 c 0
 637 91 614 51 614 51 c 1
 614 51 614 51 614 52 c 0
 614 57 601 82 384 96 c 0
 346 98 360 301 348 301 c 0
 348 301 325 289 309 289 c 24
 266 289 198 305 198 305 c 1
 196 59 l 25
 196 59 206 25 214 23 c 0
 216 23 l 0
 216 19 135 0 135 0 c 1
 135 0 134 643 126 670 c 0
 119 692 103 696 103 711 c 0
 103 746 155 760 171 760 c 0
EndSplineSet
Validated: 1
EndChar

StartChar: ADLAM_CAPITAL_LETTER_SINNYIIYHE
Encoding: 5 125189 7
Width: 800
VWidth: 0
GlyphClass: 2
Flags: HW
HStem: -6 65<409.846 620.982> 157 64<218.427 291.107> 170 32<483.057 521.537>
VStem: 109 59<532.076 664> 117 68<299 468.924> 353 61<317 641> 623 66<78 391.344> 627 76<376.656 623>
LayerCount: 2
Back
Fore
SplineSet
101 14 m 25xa6
 144 70 l 25
 144 70 367 76 408 76 c 0
 447 76 510 59 607 59 c 0
 612 59 617 59 623 59 c 9
 621 279 l 26
 621 279 529 170 484 170 c 0xa6
 439 170 394 213 363 241 c 2
 351 252 l 18
 351 252 296 157 242 157 c 0
 239 157 237 158 234 158 c 0
 189 166 118 211 117 240 c 10xce
 109 664 l 26
 168 702 l 26xd4
 185 299 l 18
 185 299 213 221 259 221 c 0
 260 221 260 221 261 221 c 0xcc
 308 223 353 229 353 270 c 26
 351 641 l 26
 410 690 l 26
 414 317 l 26
 414 317 480 209 500 203 c 0
 501 203 502 202 503 202 c 0
 529 202 622 266 623 334 c 10xae
 627 623 l 26
 613 639 l 26
 703 690 l 26xa5
 689 78 l 26
 621 0 l 18
 621 0 597 -6 530 -6 c 0
 497 -6 453 -5 396 0 c 0
 205 16 216 9 101 14 c 25xa6
EndSplineSet
Validated: 1
EndChar

StartChar: ADLAM_CAPITAL_LETTER_PE
Encoding: 6 125190 8
Width: 638
VWidth: 0
GlyphClass: 2
Flags: HW
HStem: -1 41<299.061 501.972>
VStem: 102 64<67.9076 331.965 332 569.111 619.984 629> 106 67<586 629> 483 50<274.14 520.621>
LayerCount: 2
Back
Fore
SplineSet
327 623 m 1xd0
 327 623 194 613 171 543 c 0
 165 523 163 482 163 434 c 0
 163 373 166 297 166 228 c 0
 166 211 166 194 165 178 c 0
 165 164 164 151 164 141 c 0
 164 53 183 62 276 59 c 0
 277 59 277 59 278 59 c 0
 348 59 481 170 483 395 c 0
 483 396 483 398 483 399 c 0
 483 622 327 623 327 623 c 1xd0
106 629 m 26xb0
 169 670 l 26
 173 586 l 18xb0
 173 586 254 668 349 668 c 0
 350 668 351 668 352 668 c 0
 447 666 533 576 533 380 c 0
 533 378 533 375 533 373 c 0
 531 211 370 98 370 74 c 0
 370 72 372 71 375 70 c 2
 374 67 373 64 373 62 c 0
 373 44 415 40 456 40 c 0
 496 40 536 44 536 44 c 2
 489 -25 l 26
 468 0 l 2
 468 0 431 -1 382 -1 c 0
 287 -1 144 2 125 20 c 0
 106 37 102 144 102 227 c 0xd0
 102 284 104 332 104 332 c 1
 106 629 l 26xb0
EndSplineSet
Validated: 1
EndChar

StartChar: ADLAM_CAPITAL_LETTER_BHE
Encoding: 7 125191 9
Width: 676
VWidth: 0
Flags: HW
HStem: 658 64<229.543 467.215>
VStem: 100 63<415.137 577.973> 109 63<-31.9523 74.9> 461 65<96 261.443> 479 54<263.038 406 413.141 568.984>
LayerCount: 2
Back
SplineSet
108.671875 -4.095703125 m 1
 114.888671875 114.034179688 268.416015625 253.952148438 268.416015625 253.952148438 c 17
 285.874023438 282.154296875 118.912109375 251.904296875 100.48046875 446.463867188 c 1
 121.984375 636.927734375 200.83203125 620.543945312 200.83203125 645.120117188 c 10
 200.83203125 675.83984375 l 26
 237.696289062 704.51171875 l 26
 309.375976562 721.919921875 l 26
 379.0078125 722.944335938 l 18
 456.834960938 724.088867188 499.673828125 749.4140625 563.328125 797.696289062 c 0
 606.966796875 830.795898438 521.34375 723.967773438 478.3359375 687.103515625 c 0
 429.92578125 645.610351562 385.15234375 658.431640625 318.591796875 656.383789062 c 0
 281.391601562 655.239257812 239.744140625 656.383789062 224.383789062 648.192382812 c 0
 164.206054688 616.096679688 159.872070312 552.959960938 163.967773438 479.232421875 c 0
 168.586914062 396.087890625 241.05078125 338.279296875 323.711914062 329.727539062 c 0
 353.408203125 326.65625 465.877929688 381.977539062 477.311523438 458.751953125 c 0
 484.48046875 506.879882812 466.826171875 567.624023438 469.120117188 569.34375 c 10
 551.040039062 630.784179688 l 26
 555.135742188 595.967773438 l 26
 532.608398438 579.583984375 l 26
 525.440429688 96.255859375 l 30
 563.328125 65.5361328125 l 26
 512.127929688 10.240234375 l 26
 460.927734375 47.103515625 l 26
 473.215820312 405.50390625 l 26
 309.375976562 268.288085938 l 26
 241.791992188 211.967773438 197.759765625 138.240234375 175.232421875 77.82421875 c 4
 160.668945312 38.7666015625 182.400390625 -7.16796875 159.872070312 -48.1279296875 c 4
 149.310546875 -67.330078125 107.6484375 -23.5517578125 108.671875 -4.095703125 c 1
EndSplineSet
Fore
SplineSet
109 -4 m 1xb0
 115 114 268 254 268 254 c 17
 269 256 270 257 270 258 c 0
 270 281 130 270 100 446 c 1xc0
 109 645 172 619 172 644 c 9xa0
 196 659 209 691 238 705 c 16
 262 716 278 722 303 722 c 0
 305 722 307 722 309 722 c 0
 316 722 323 722 330 722 c 0
 422 722 489 742 563 798 c 0
 569 802 572 804 574 804 c 0
 575 804 576 804 576 803 c 0
 576 792 513 717 478 687 c 0
 448 661 411 657 373 657 c 0
 358 657 343 658 328 658 c 0
 295 658 262 655 232 639 c 0
 179 611 163 566 163 505 c 0
 163 497 164 488 164 479 c 0
 169 396 241 338 324 330 c 0
 325 330 325 330 326 330 c 0
 359 330 466 384 477 459 c 0
 478 467 479 475 479 484 c 0
 479 523 469 562 469 568 c 0
 469 569 l 10
 551 631 l 26
 555 596 l 26
 533 580 l 26xc8
 526 96 l 26
 563 66 l 26
 512 10 l 26
 461 47 l 26
 473 406 l 26
 309 268 l 26
 241 212 199 138 176 78 c 0
 172 66 171 54 171 41 c 0
 171 29 172 16 172 3 c 0
 172 -14 170 -31 161 -48 c 0
 159 -51 156 -39 153 -39 c 0
 137 -39 109 -21 109 -5 c 0
 109 -4 l 1xb0
EndSplineSet
Validated: 1
EndChar

StartChar: ADLAM_CAPITAL_LETTER_RA
Encoding: 8 125192 10
Width: 722
VWidth: 0
Flags: HW
HStem: 0 61<216.551 458.8> 15 53<238.95 549.768> 225 42<251.101 397.602>
VStem: 114 74<80.7041 257.995 293.611 632.119> 130 58<408.713 695.385> 568 52<452.909 717.007>
LayerCount: 2
Back
SplineSet
99.6796875 704.51171875 m 26
 181.599609375 757.759765625 l 26
 183.6484375 333.82421875 l 1050
EndSplineSet
Fore
SplineSet
567 -14 m 25x74
 534 0 l 18xb4
 509 11 484 15 461 15 c 0x74
 414 15 371 0 323 0 c 0
 286 0 248 -8 215 -8 c 0
 182 -8 154 0 137 33 c 0
 119 68 114 113 114 163 c 0xb4
 114 222 120 289 120 357 c 0
 120 364 120 372 120 379 c 0
 120 386 120 394 120 401 c 0
 120 483 130 574 130 635 c 0
 130 662 128 683 122 696 c 9
 102 711 l 25
 188 764 l 26xac
 186 340 l 18
 186 287 248 267 308 267 c 0
 336 267 362 272 383 279 c 0
 499 318 548 367 558 537 c 0
 561 577 568 621 568 651 c 0
 568 670 565 683 556 686 c 9
 517 688 l 26
 608 763 l 18
 609 763 l 0
 617 763 620 694 620 625 c 0
 620 571 618 518 614 499 c 0
 585 373 448 258 362 229 c 0
 353 226 343 225 333 225 c 0
 284 225 234 258 207 258 c 0
 195 258 188 251 188 233 c 10
 188 125 l 18
 188 73 242 61 302 61 c 0xb4
 347 61 396 68 429 68 c 0
 431 68 434 68 436 68 c 0
 439 68 442 67 445 67 c 0
 506 67 562 81 589 81 c 0
 599 81 606 79 606 73 c 0
 606 73 606 73 606 72 c 9
 605 32 590 4 567 -14 c 25x74
EndSplineSet
Validated: 1
EndChar

StartChar: ADLAM_CAPITAL_LETTER_E
Encoding: 9 125193 11
Width: 806
VWidth: 0
Flags: HW
LayerCount: 2
Back
Fore
SplineSet
460 76 m 0
 581 74 631 82 636 158 c 0
 640 226 560 313 470 317 c 24
 375 322 274 253 270 176 c 0
 265 78 376 77 460 76 c 0
186 119 m 17
 197 95 157 153 398 362 c 0
 413 375 627 488 641 563 c 0
 659 658 529 696 432 700 c 0
 152 712 192 613 170 490 c 0
 147 361 145 188 186 119 c 17
122 32 m 0
 87 14 106.737304688 48.060546875 98 150 c 0
 95 185 109 506 134 588 c 0
 159 670 286 746 325 752 c 0
 406 765 506 766 595 745 c 0
 630 737 702 674 706 604 c 24
 709 541 655 518 610 473 c 24
 566 430 491 379 491 379 c 10
 410 323 676 460 690 229 c 0
 696 137 639 63 550 25 c 0
 433 -25 350.083984375 52.4599609375 225 37 c 2
 202.993164062 37.8125 141 42 122 32 c 0
EndSplineSet
Validated: 524321
EndChar

StartChar: ADLAM_CAPITAL_LETTER_FA
Encoding: 10 125194 12
Width: 650
VWidth: 0
Flags: W
LayerCount: 2
Back
Fore
SplineSet
175 182 m 0
 145 348 136 542 156 610 c 0
 169 653 282 749 301 762 c 0
 313 770 479 777 504 754 c 0
 504 754 508 628 496 643 c 10
 496 643 471 705 435 717 c 24
 381 735 342 730 287 715 c 24
 251 705 227 690 213 655 c 0
 190 600 201 502 201 502 c 26
 199 417 238 604 402 598 c 0
 574 592 486 407 514 274 c 0
 534 177 497 50 525 18 c 10
 541 0 l 26
 502 -45 l 26
 461 -23 l 18
 461 -23 456 182 459 313 c 0
 463 526 463 555 363 547 c 0
 240 537 182 453 207 330 c 0
 214 294 203 269 220 236 c 24
 236 204 289 176 289 176 c 18
 323 147 177 171 175 182 c 0
EndSplineSet
Validated: 33
EndChar

StartChar: ADLAM_CAPITAL_LETTER_I
Encoding: 11 125195 13
Width: 740
VWidth: 0
Flags: W
VStem: 578 70<344.523 625.838>
LayerCount: 2
Back
SplineSet
2.671875 380.927734375 m 1052
371.311523438 -12.2880859375 m 24,1,2
 258.671875 -10.240234375 172.65625 40.9599609375 129.6484375 145.408203125 c 24,3,4
 66.16015625 301.055664062 243.311523438 452.608398438 129.6484375 577.536132812 c 26,5,-1
 109.16796875 600.064453125 l 26,6,-1
 170.608398438 630.784179688 l 26,7,-1
 199.280273438 614.400390625 l 26,8,-1
 205.423828125 198.65625 l 26,9,10
 206.448242188 102.400390625 309.872070312 9.2158203125 397.935546875 45.0556640625 c 24,11,12
 521.83984375 95.232421875 521.83984375 217.087890625 563.82421875 344.064453125 c 24,13,14
 592.49609375 430.080078125 632.431640625 505.856445312 576.112304688 577.536132812 c 26,15,-1
 561.776367188 595.967773438 l 26,16,-1
 649.83984375 636.927734375 l 26,17,-1
 647.791992188 583.6796875 l 26,18,19
 640.624023438 409.599609375 692.84765625 295.935546875 619.120117188 137.215820312 c 24,20,21
 572.015625 34.81640625 483.952148438 -14.3359375 371.311523438 -12.2880859375 c 24,1,2
EndSplineSet
Fore
SplineSet
371 -12 m 24
 258 -10 153 34 130 145 c 0
 95 313 137 410 130 578 c 24
 129 590 102 591 109 600 c 24
 125 622 144 627 171 631 c 24
 183 633 198 627 199 614 c 24
 212 452 148 341 201 187 c 24
 233 96 314 37 409 45 c 0
 646 65 564 197 578 344 c 0
 587 434 577 487 576 578 c 24
 576 587 555 590 562 596 c 24
 592 620 612 642 650 637 c 24
 670 634 649 604 648 584 c 0
 638 410 664 303 630 137 c 0
 608 27 484 -14 371 -12 c 24
EndSplineSet
Validated: 33
EndChar

StartChar: ADLAM_CAPITAL_LETTER_O
Encoding: 12 125196 14
Width: 868
VWidth: 0
Flags: W
HStem: 0 77<419.832 683> 683 49<412.472 579.899>
VStem: 97 64<287.012 444.777>
LayerCount: 2
Back
Fore
SplineSet
224 76 m 17
 158 111 98 248 97 361 c 0
 97 362 97 362 97 363 c 0
 97 514 337 731 519 732 c 0
 520 732 522 732 523 732 c 0
 636 732 747 692 777 577 c 0
 778 573 779 568 779 563 c 0
 779 516 726 456 726 456 c 2
 726 456 724 683 455 683 c 0
 453 683 451 683 449 683 c 0
 359 682 161 554 161 403 c 0
 161 396 162 389 163 382 c 0
 185 202 267 77 506 77 c 0
 509 77 512 77 515 77 c 0
 679 79 759 92 759 92 c 2
 773 16 l 26
 740 -41 l 2
 683 0 l 26
 169 14 l 2
 224 76 l 17
EndSplineSet
Validated: 1
EndChar

StartChar: NameMe.13
Encoding: 13 125197 15
Width: 672
VWidth: 0
Flags: W
HStem: 538 45<237.877 437.616>
VStem: 112 62<290.073 482.639>
LayerCount: 2
Back
SplineSet
503.391601562 212.9921875 m 30
 501.34375 280.576171875 417.375976562 111.616210938 351.83984375 129.024414062 c 28
 240.223632812 158.719726562 165.471679688 206.84765625 120.416015625 313.34375 c 20
 106.724609375 345.616210938 102.081054688 376.020507812 102.262695312 405.50390625 c 6
 102.840820312 499.510742188 152.467773438 584.162109375 114.272460938 690.17578125 c 14
 97.8876953125 735.232421875 l 30
 159.328125 770.047851562 l 30
 185.952148438 512 l 30
 193.120117188 440.3203125 284.255859375 576.51171875 355.935546875 585.727539062 c 28
 411.232421875 592.896484375 492.127929688 497.6640625 495.200195312 552.959960938 c 30
 505.440429688 714.751953125 l 30
 478.81640625 722.944335938 l 30
 554.591796875 780.288085938 l 30
 577.120117188 16.3837890625 l 30
 591.456054688 0 l 30
 546.400390625 -45.0556640625 l 30
 509.536132812 -12.2880859375 l 30
 503.391601562 212.9921875 l 30
EndSplineSet
Fore
SplineSet
346 538 m 0
 225 536 172 501 174 380 c 0
 175 295 231 204 321 194 c 0
 446 180 504 250 497 359 c 0
 489 483 457 540 346 538 c 0
503 213 m 26
 501 281 471 123 352 129 c 0
 237 135 108 224 112 396 c 0
 118 693 98 735 98 735 c 1
 111 759 159 770 159 770 c 2
 159 770 147 664 172 583 c 0
 192 517 227 578 356 583 c 0
 454 587 495 505 500 553 c 0
 522 769 479 723 479 723 c 0
 487 749 565 780 565 780 c 2
 565 780 534 412 563 19 c 0
 564 11 591 0 591 0 c 2
 546 -45 l 26
 546 -45 513 -31 510 -12 c 24
 496 75 503 213 503 213 c 26
EndSplineSet
Validated: 33
EndChar

StartChar: ADLAM_CAPITAL_LETTER_YHE
Encoding: 14 125198 16
Width: 746
VWidth: 0
Flags: W
HStem: 2 55<263.287 618>
VStem: 96 67<137.994 282.347>
LayerCount: 2
Back
SplineSet
95.7275390625 192.51171875 m 4
 95.7275390625 313.801757812 243.137695312 446.416992188 288.240234375 491.51953125 c 4
 318.959960938 522.240234375 515.568359375 454.65625 466.416015625 503.807617188 c 30
 296.431640625 673.791992188 l 30
 370.16015625 727.040039062 l 30
 370.16015625 727.040039062 408.452148438 710.296875 421.360351562 690.17578125 c 4
 490.9921875 581.631835938 615.919921875 495.616210938 615.919921875 495.616210938 c 30
 556.528320312 440.3203125 l 30
 280.047851562 432.127929688 l 30
 185.83984375 429.055664062 163.311523438 304.127929688 163.311523438 216.064453125 c 4
 163.311523438 79.82421875 304.936523438 45.345703125 456.17578125 55.2958984375 c 4
 611.82421875 65.5361328125 682.524414062 65.072265625 679.408203125 57.34375 c 14
 628.208007812 -65.5361328125 l 30
 617.967773438 0 l 30
 249.328125 0 l 30
 153.072265625 0 95.7275390625 108.543945312 95.7275390625 192.51171875 c 4
EndSplineSet
Fore
SplineSet
96 195 m 0
 96 316 243 449 288 494 c 0
 319 525 515 457 466 506 c 26
 296 676 l 26
 370 729 l 26
 370 729 408 712 421 692 c 0
 491 583 616 498 616 498 c 26
 557 442 l 26
 280 434 l 26
 186 431 163 306 163 218 c 0
 163 82 305 47 456 57 c 0
 612 67 682 67 679 59 c 10
 628 -63 l 26
 618 2 l 26
 249 2 l 26
 153 2 96 111 96 195 c 0
EndSplineSet
Validated: 33
EndChar

StartChar: ADLAM_CAPITAL_LETTER_WAW
Encoding: 15 125199 17
Width: 684
VWidth: 0
Flags: W
HStem: 288 62<171.544 345.711> 610 64<378.535 528.925>
VStem: 96 66<142.808 467.259> 100 73<70 226.348> 471 76<26.5161 487.58>
LayerCount: 2
Back
Fore
SplineSet
214 -35 m 8xd8
 160 -19 104 -3 100 53 c 0xd8
 98 80 96 152 96 230 c 0
 96 326 100 430 114 461 c 0
 153 543 303 650 460 670 c 0
 485 673 499 674 509 674 c 0
 531 674 525 669 550 668 c 1
 550 668 547 536 547 378 c 0
 547 267 548 143 554 43 c 8
 555 27 587 18 587 18 c 26
 562 -45 l 26
 562 -45 484 -45 481 -10 c 0
 474 66 471 155 471 241 c 0
 471 429 483 606 483 606 c 1
 483 606 456 610 419 610 c 0
 370 610 303 603 257 567 c 0
 157 489 174 485 170 422 c 0
 169 406 162 381 162 364 c 0xe8
 162 351 166 341 177 341 c 0
 178 341 l 2
 178 341 250 350 312 350 c 0
 327 350 341 349 354 348 c 8
 370 347 386 324 386 324 c 26
 386 223 l 26
 386 223 350 274 315 283 c 16
 300 287 279 288 261 288 c 0
 213 288 165 279 165 279 c 10
 173 70 l 26
 173 70 196 34 216 20 c 24
 235 7 274 0 274 0 c 18
 278 -2 280 -4 280 -6 c 0
 280 -17 247 -36 224 -36 c 0
 221 -36 217 -36 214 -35 c 8xd8
EndSplineSet
Validated: 1
EndChar

StartChar: ADLAM_CAPITAL_LETTER_NUN
Encoding: 16 125200 18
Width: 754
VWidth: 0
Flags: W
HStem: 681 52<310.297 507.2>
VStem: 99 68<126.621 258.292> 145 63<509.359 611.292> 491 74<87.2446 324.243> 501 70<183.757 416> 571 59<550.699 629.903>
LayerCount: 2
Back
Fore
SplineSet
491 92 m 10x94
 501 416 l 26x88
 571 467 l 25
 569 358 565 249 565 139 c 0
 565 58 655 71 655 68 c 2
 655 68 654 67 651 66 c 2
 652 66 653 64 653 63 c 0
 653 56 610 34 580 34 c 0
 539 34 491 63 491 92 c 10x94
99 168 m 8xc4
 102 280 176 335 259 410 c 0
 316 461 362 469 436 500 c 0
 512 532 571 535 571 582 c 1
 562 665 458 681 370 681 c 0
 296 681 219 663 208 600 c 0
 204 579 211 482 200 482 c 0
 182 482 145 532 145 561 c 0xa4
 151 636 292 733 420 733 c 0
 517 733 630 684 630 600 c 0
 630 545 542 488 462 469 c 0
 394 452 167 398 167 208 c 0
 167 110 230 86 266 78 c 0
 314 70 425 100 425 94 c 0
 425 80 326 11 257 11 c 0
 164 11 99 77 99 168 c 8xc4
EndSplineSet
Validated: 33
EndChar

StartChar: ADLAM_CAPITAL_LETTER_KAF
Encoding: 17 125201 19
Width: 1024
VWidth: 0
Flags: W
HStem: 6 47<163 402.411> 298 87<269 429.639>
VStem: 480 88<380.016 670> 497 71<92 316> 766 92<18 279.969> 766 84<18.468 379>
LayerCount: 2
Back
Fore
SplineSet
103 6 m 10xd8
 163 53 l 26
 497 63 l 26xd8
 490 309 l 26
 489 363 405 298 351 298 c 4
 277 298 151 321 167 340 c 10
 224 410 l 26
 269 385 l 26
 480 379 l 26
 482 670 l 26
 232 682 l 26
 298 743 l 18
 307.249969048 751.549213817 462 732 566 733 c 24
 705 734 923 750 923 750 c 10
 851 680 l 26
 566 672 l 26
 568 403 l 26
 569 324 648 395 727 416 c 0
 776 429 854 458 854 438 c 10
 850 49 l 26xe4
 850 37 865 28 858 18 c 24
 845 -2 831 -15 807 -18 c 0
 780 -21 722 -6 743 6 c 10
 766 18 l 26
 762 379 l 26
 617 326 l 26
 568 316 l 26
 568 92 l 26
 484 -4 l 18
 470 -20 359 4 278 6 c 24
 210 8 70 -27 103 6 c 10xd8
EndSplineSet
Validated: 524321
EndChar

StartChar: ADLAM_CAPITAL_LETTER_YA
Encoding: 18 125202 20
Width: 814
VWidth: 0
Flags: W
HStem: -5 55<214.491 382.375> 388 67<315.5 583.192>
VStem: 143 74<510.919 599.916> 639 78<500.432 610.905>
LayerCount: 2
Back
Fore
SplineSet
193 499 m 0
 174 499 135 527 143 554 c 24
 162 614 198 641 247 681 c 26
 311 734 l 18
 334 753 622 742 653 693 c 0
 668 668 719 624 717 570 c 0
 713 459 607 445 612 437 c 2
 594 414 571 310 575 180 c 0
 579 65 684 0 608 -5 c 0
 427 -17 336 -5 162 -5 c 24
 143 -5 115 -5 115 -5 c 10
 96 34 l 26
 161 85 l 18
 195 112 206 49 285 50 c 0
 381 51 427 44 520 50 c 0
 657 59 690 62 678 200 c 0
 662 376 553 387 442 388 c 0
 321 389 285 386 264 351 c 0
 241 313 198 345 215 353 c 18
 171 355 303 457 426 455 c 0
 580 452 637 441 639 529 c 0
 641 645 555 674 424 677 c 0
 246 681 264 651 217 593 c 0
 193 563 231 499 193 499 c 0
EndSplineSet
Validated: 37
EndChar

StartChar: ADLAM_CAPITAL_LETTER_U
Encoding: 19 125203 21
Width: 776
VWidth: 0
Flags: W
LayerCount: 2
Back
Fore
SplineSet
597 608 m 0
 580 639 512 488 464 334 c 0
 416 180 298 72 298 72 c 10
 280 43 348 47 382 45 c 24
 426 43 434 30 474 50 c 24
 516 72 580 113 586 159 c 0
 593 216 611 581 597 608 c 0
361 206 m 0
 399 291 436 341 431 434 c 0
 425 545 390 591 308 614 c 0
 204 643 195 547 189 477 c 0
 179 360 162 291 187 176 c 0
 198 126 245 36 275 78 c 18
 275 78 336 151 361 206 c 0
596 117 m 0
 517 37 423 -30 352 -23 c 0
 113 0 96 144 98 307 c 0
 101 522 195 670 350 688 c 0
 451 700 504 554 514 565 c 10
 663 737 l 26
 671 231 l 26
 661 191 l 18
 641 148 661 129 644 92 c 24
 617 37 590 14 553 -35 c 17
 558 -16 579 25 585 47 c 0
 598 93 596 117 596 117 c 0
EndSplineSet
Validated: 33
EndChar

StartChar: ADLAM_CAPITAL_LETTER_JIIM
Encoding: 20 125204 22
Width: 970
VWidth: 0
Flags: HWO
HStem: -4 65<284.954 725.422> 689 46<579.673 707.62>
LayerCount: 2
Back
Fore
SplineSet
809 -4 m 2
 805.462628103 -25.4724680061 617 -6 494 -4 c 0
 349 -2 111 -18 121 -4 c 10
 186 70 l 18
 194 82 296 57 518 61 c 0
 622.060004534 62.8749550366 746.308882519 17.8316307409 774 69 c 0
 820 154 798 384 798 384 c 3
 798 666 728.070153853 684 626 684 c 7
 578.957466055 684 499 697.487622245 499 647 c 3
 499 597.502525317 567 600.843997814 567 464 c 3
 567 316.945588301 468.099701438 224.522985033 401 173 c 0
 345 130 511 334.702966504 511 440 c 3
 511 495.319591445 443.151367188 673 281 673 c 3
 137.716796875 673 137 576 139 529 c 0
 144 425 168 380 204 283 c 26
 220 238 l 26
 247 204 l 18
 261 188 185 186 155 206 c 0
 117.447769461 231.750100941 60.8539589506 575.383260686 112 621 c 0
 182 683 240.689268134 729 339 729 c 3
 398.841457202 729 454 682 487 682 c 3
 522 682 547.995575308 735 661 735 c 3
 883.938313806 735 866 529.582151406 866 342 c 3
 866 247.469581615 843 -4 809 -4 c 2
EndSplineSet
EndChar

StartChar: ADLAM_CAPITAL_LETTER_CHI
Encoding: 21 125205 23
Width: 726
VWidth: 0
Flags: W
HStem: 632 55<384.269 538.179>
VStem: 163 53<505.36 625> 167 57<440.85 622.652> 549 64<65.008 619.933>
LayerCount: 2
Back
Fore
SplineSet
502 -8 m 26x90
 549 36 l 26
 551 458 l 26
 551 486 550 588 544 590 c 25
 544 634 484 631 441 632 c 0
 391 633 359 609 351 609 c 10
 306 608 l 26
 384 679 l 18
 389 684 442 687 480 687 c 0
 524 687 550 679 592 664 c 24
 604 659 614 650 614 637 c 26
 614 637 608 301 613 86 c 24
 613 76 626 65 626 65 c 26
 502 -8 l 26x90
521 72 m 10
 474 12 l 18
 469 4 397 -6 251 -16 c 0
 147 -23 101 49 100 133 c 24
 99 237 225 323 247 356 c 0
 257 371 177 371 167 424 c 0xb0
 161 457 172 576 163 625 c 0
 142 639 l 26
 216 698 l 26xd0
 224 483 l 26xb0
 226 432 285 417 337 414 c 24
 399 410 530 508 488 461 c 0
 437 404 397 376 373 373 c 0
 282 361 184 306 160 203 c 0
 143 126 167 56 300 55 c 0
 390 54 546 103 521 72 c 10
EndSplineSet
Validated: 33
EndChar

StartChar: ADLAM_CAPITAL_LETTER_HA
Encoding: 22 125206 24
Width: 824
VWidth: 0
Flags: W
VStem: 650 78<174.08 340.381>
LayerCount: 2
Back
Fore
SplineSet
728 315 m 3
 728 108.87704171 634.583659914 -26.0741589662 400 -14 c 0
 298 -9 178 -32 127 -4 c 0
 113 3 94 79 99 88 c 0
 183 96 l 1
 193.645674731 -18.9732870969 655.763698652 11.0428072898 650 256 c 4
 648 328 592 507 351 510 c 0
 279 511 236 465 239 487 c 0
 241 502 250 476 276 553 c 0
 282 572 308 693 327 694 c 26
 380 698 l 26
 351 567 l 18
 346 544 728 596.007117348 728 315 c 3
EndSplineSet
Validated: 33
EndChar

StartChar: ADLAM_CAPITAL_LETTER_QAAF
Encoding: 23 125207 25
Width: 886
VWidth: 0
Flags: W
HStem: 620 53<254.048 361.52>
VStem: 125 77<419.029 536.207> 420 66<400.213 554.625>
LayerCount: 2
Back
Fore
SplineSet
420 444 m 0
 420 530 390 620 289 620 c 0
 246 620 220 600 211 546 c 0
 206 516 201 498 202 469 c 0
 203 433 226 417 249 389 c 0
 275 358 289 343 342 343 c 0
 426 343 420 405 420 444 c 0
641 -2 m 18
 628 -13 484 -1 385 0 c 24
 273 1 86 -12 98 0 c 10
 155 56 l 26
 155 56 637 37 652 50 c 0
 675 70 663 443 663 443 c 18
 663 460 569 388 546 369 c 0
 521 349 449 327 418 302 c 0
 339 239 291 212 202 167 c 24
 192 162 171 183 182 187 c 0
 252 215 343 268 347 291 c 0
 358 351 241 272 192 308 c 0
 147 341 125 382 125 440 c 0
 125 491 148 557 194 615 c 0
 216 642 309 673 331 673 c 0
 389 673 429 651 460 602 c 0
 476 576 488 523 486 471 c 24
 484 423 439 364 450 353 c 0
 458 345 524 379 564 406 c 0
 634 452 648 461 662 545 c 0
 667 572 673 590 659 613 c 26
 649 629 l 26
 777 678 l 26
 781 651 l 26
 781 651 761 637 760 624 c 0
 735 403 745 140 731 72 c 0
 726 46 641 -2 641 -2 c 18
EndSplineSet
Validated: 33
EndChar

StartChar: ADLAM_CAPITAL_LETTER_GA
Encoding: 24 125208 26
Width: 790
VWidth: 0
Flags: W
HStem: -13 60<312.136 609.246> 0 59<193.869 377.262> 329 56<269.34 481.021>
VStem: 137 107<591.535 719> 616 65<55.5043 207.714> 653 13<726.057 728.689>
LayerCount: 2
Back
Fore
SplineSet
535 -13 m 0xb8
 454 -13 270 0 153 0 c 0
 129 0 101 12 101 25 c 1
 101 37 130 73 163 87 c 16
 164 87 166 88 167 88 c 0
 177 88 179 67 192 65 c 0
 232 60 264 59 296 59 c 0
 304 59 312 59 320 59 c 0x78
 384 59 501 47 544 47 c 0
 596 47 616 59 616 100 c 0xb8
 616 112 614 127 611 145 c 0
 591 266 521 329 363 329 c 0
 212 329 137 410 137 490 c 0
 137 560 142 676 142 719 c 0
 142 719 180 740 206 740 c 0
 207 740 206 740 207 740 c 0
 240 739 244 701 244 668 c 0
 244 641 205 575 216 519 c 8
 230 442 249 385 348 385 c 0
 393 385 452 394 493 412 c 0
 560 442 571 473 571 508 c 0
 571 548 575 598 575 634 c 0
 575 646 574 659 570 674 c 8
 567 685 531 675 540 682 c 24
 579 712 653 737 653 737 c 1
 663 727 666 709 666 686 c 0xb4
 666 624 659 532 634 493 c 24
 599 440 514 385 514 385 c 17
 514 357 681 333 681 196 c 1
 681 128 680 104 665 54 c 1
 639 3 586 -13 535 -13 c 0xb8
EndSplineSet
Validated: 33
EndChar

StartChar: ADLAM_CAPITAL_LETTER_NYA
Encoding: 25 125209 27
Width: 708
VWidth: 0
Flags: W
HStem: 66 63<249.15 420.487> 666 49<240.59 446.747>
VStem: 103 56<505.761 605.231> 114 62<190.097 307.938> 511 52<516.875 597.447> 556 52<140.039 274.035>
LayerCount: 2
Back
Fore
SplineSet
378 129 m 0xd4
 379 129 381 129 382 129 c 0
 530 129 556 186 556 211 c 0
 556 212 556 213 556 213 c 0
 554 298 423 400 321 400 c 0
 318 400 314 399 311 399 c 0
 221 393 176 340 176 259 c 0
 176 151 284 130 378 129 c 0xd4
550 169 m 0
 550 169 436 72 348 67 c 0
 338 66 328 66 319 66 c 0
 256 66 207 79 159 112 c 0xe4
 125 135 114 172 114 214 c 0
 114 218 114 221 114 225 c 0xd0
 118 324 186 378 236 411 c 0
 237 411 l 0
 237 418 103 439 103 546 c 0
 103 547 103 548 103 549 c 0
 104 614 190 675 277 709 c 0
 285 712 348 715 397 715 c 0
 424 715 448 714 455 711 c 0
 513 684 559 650 563 585 c 0
 563 584 563 583 563 582 c 0
 563 548 524 478 503 475 c 0
 503 475 511 505 511 534 c 0
 511 548 509 561 504 572 c 0
 462 658 415 664 344 666 c 0
 333 666 322 666 312 666 c 0
 229 666 159 651 159 561 c 0xe8
 159 486 245 464 320 454 c 0
 399 444 458 430 530 383 c 24
 579 350 606 321 608 261 c 0
 608 257 608 254 608 250 c 0
 608 102 505 5 391 -70 c 0
 388 -72 386 -73 385 -73 c 0
 385 -68 548 69 550 169 c 0
EndSplineSet
Validated: 5
EndChar

StartChar: ADLAM_CAPITAL_LETTER_TU
Encoding: 26 125210 28
Width: 912
VWidth: 0
Flags: W
HStem: 0 21G<758.143 793.889> 659 39<506.146 618.162>
VStem: 99 62<84.6943 277.715> 390 72<114.946 610.747> 727 56<364.077 528.692>
LayerCount: 2
Back
Fore
SplineSet
99 51 m 0
 99 263 67 417 99 594 c 0
 103 617 282 714 325 715 c 0
 344 715 373 673 407 672 c 0
 421 672 422 690 435 690 c 24
 450 690 455 672 470 670 c 0
 481 668 554 698 603 698 c 0
 668 698 730 675 752 614 c 0
 766 575 784 532 783 477 c 0
 781 343 737 327 679 248 c 0
 630 181 514 108 523 122 c 0
 543 156 723 266 727 430 c 0
 730 543 631 661 569 659 c 0
 543 658 467 646 466 631 c 0
 460 538 455 367 462 199 c 24
 464 163 472 120 488 111 c 0
 585 56 815 113 812 92 c 10
 804 27 l 26
 765 0 l 26
 753 35 l 18
 744 61 582 33 474 33 c 0
 423 33 395 106 390 168 c 0
 385 230 393 401 388 555 c 0
 386 617 334 650 273 657 c 24
 219 663 163 627 163 573 c 0
 162 391 155 285 161 106 c 0
 162 77 261 75 282 0 c 0
 286 -14 250 -35 230 -25 c 0
 178 0 99 14 99 51 c 0
EndSplineSet
Validated: 33
EndChar

StartChar: ADLAM_CAPITAL_LETTER_NHA
Encoding: 27 125211 29
Width: 780
VWidth: 0
Flags: W
HStem: 6 47<208.449 299.843 480.346 616.914> 676 22<412.765 475.998>
VStem: 97 61<117.566 230.594> 158 53<441.823 553.479> 410 66<64.1433 80 80.1164 428 428 432.353> 418 49<472.096 599.976> 634 46<530.95 620.29>
LayerCount: 2
Back
Fore
SplineSet
478 473 m 0xc6
 486 472 493 471 502 471 c 0
 560 471 633 501 634 562 c 0
 634 563 l 0
 634 628 566 662 515 662 c 0
 502 662 490 659 481 655 c 0
 471 650 467 606 467 562 c 0
 467 518 471 474 478 473 c 0xc6
347 83 m 0
 344 46 279 6 216 6 c 0
 149 6 97 63 97 130 c 0
 97 131 97 131 97 132 c 8
 98 231 147 284 219 352 c 0
 274 404 297 403 401 455 c 0
 414 462 418 497 418 532 c 0xe6
 418 567 415 600 415 600 c 10
 387 603 l 26
 464 658 l 18
 473 664 476 669 476 672 c 0xca
 476 675 473 676 467 676 c 0
 433 676 318 639 269 609 c 8
 229 584 212 551 211 505 c 0
 211 504 211 504 211 503 c 0
 211 447 254 425 254 415 c 0
 254 413 252 411 247 410 c 0
 243 409 239 408 235 408 c 0
 198 408 158 457 158 493 c 0
 158 495 l 0xd6
 159 580 317 694 460 697 c 0
 465 697 470 698 475 698 c 0
 566 698 680 679 680 595 c 0
 680 469 479 446 479 446 c 2
 477 444 476 403 476 349 c 0
 476 240 479 80 479 80 c 2
 479 63 508 61 542 61 c 0
 558 61 574 61 590 61 c 0
 614 61 637 60 647 53 c 0
 660 44 664 33 664 19 c 0
 664 4 659 -15 657 -32 c 8
 656 -42 644 -53 635 -47 c 0
 624 -40 619 -3 594 6 c 24
 546 25 513 15 462 22 c 0
 435 26 415 45 413 73 c 0
 410 121 408 179 408 234 c 0
 408 295 410 354 410 390 c 0
 410 414 409 428 408 428 c 0
 407 428 l 2
 407 431 405 433 400 433 c 0
 366 433 228 358 181 279 c 0
 165 253 158 225 158 199 c 0xea
 158 159 175 120 201 83 c 0
 217 60 236 53 255 53 c 0
 295 53 336 86 345 86 c 0
 346 86 347 85 347 84 c 0
 347 83 l 0
EndSplineSet
Validated: 1
EndChar

StartChar: ADLAM_CAPITAL_LETTER_VA
Encoding: 28 125212 30
Width: 754
VWidth: 0
Flags: W
HStem: 302 60<356.355 482.838> 658 45<398.517 535.91>
VStem: 101 76<71.3892 447.623> 108 81<223.905 467.206> 538 77<39.5611 332.996> 552 59<412.375 638.958>
LayerCount: 2
Back
Fore
SplineSet
303 0 m 16xe0
 304 -2 304 -5 304 -7 c 0
 304 -22 279 -28 256 -28 c 0
 249 -28 243 -28 237 -27 c 8
 184 -17 132 -14 113 36 c 0
 104 60 101 96 101 136 c 0xe0
 101 200 108 277 108 348 c 0
 108 351 108 353 108 356 c 0
 108 357 108 359 108 360 c 0
 108 614 418 702 510 703 c 0
 549 703 611 696 611 657 c 26xd4
 615 75 l 26
 615 61 618 51 627 39 c 24
 633 31 657 37 652 29 c 26
 633 0 l 26
 620 -39 l 26
 538 -5 l 26xc8
 532 314 l 18
 532 328 526 333 516 333 c 0
 492 333 445 302 410 302 c 0
 409 302 408 302 407 302 c 8
 362 304 295 297 294 328 c 0
 294 332 294 337 294 342 c 0
 294 376 298 429 310 440 c 0
 310 440 329 365 435 362 c 0
 437 362 437 362 439 362 c 0
 531 362 552 444 552 519 c 0
 552 582 537 639 537 639 c 1
 514 652 488 658 460 658 c 0
 340 658 193 548 189 421 c 0xd4
 187 343 177 283 177 221 c 0
 177 178 182 133 196 80 c 8
 209 30 285 48 303 0 c 16xe0
EndSplineSet
Validated: 1
EndChar

StartChar: ADLAM_CAPITAL_LETTER_KHA
Encoding: 29 125213 31
Width: 728
VWidth: 0
Flags: W
HStem: -14 55<188.125 388.212> -10 68<312.782 602.083> 223 42<330.404 438.748> 627 64<323.823 414.122>
VStem: 113 61<55.6536 537.362 586.828 617.827> 521 66<377.652 507.042>
LayerCount: 2
Back
Fore
SplineSet
587 460 m 0xbc
 587 354 500 306 423 227 c 0
 421 224 418 223 415 223 c 0
 403 223 384 245 368 237 c 0
 339 227 312 181 312 181 c 0
 309 181 305 182 302 184 c 0
 265 206 249 246 249 291 c 0
 249 296 249 302 250 307 c 0
 258 393 407 546 425 528 c 1
 442 489 375 479 347 447 c 0
 310 402 297 265 367 265 c 0
 377 265 392 266 408 267 c 0
 466 270 521 336 521 401 c 0
 521 516 448 627 332 627 c 0
 240 627 181 545 181 473 c 0
 181 365 174 241 174 158 c 0
 174 60 178 41 275 41 c 0xbc
 351 41 459 58 550 58 c 0
 577 58 601 57 624 53 c 0
 624 53 599 -10 576 -10 c 0
 575 -10 l 0x7c
 525 -6 480 -4 438 -4 c 0
 348 -4 268 -11 165 -14 c 0
 164 -14 l 2
 96 -14 113 101 113 170 c 0
 113 381 120 618 120 618 c 10
 100 631 l 26
 177 702 l 1
 176 663 173 624 173 585 c 0
 173 573 176 567 182 567 c 0
 213 567 309 691 391 691 c 0
 514 691 587 582 587 460 c 0xbc
EndSplineSet
Validated: 33
EndChar

StartChar: ADLAM_CAPITAL_LETTER_GBE
Encoding: 30 125214 32
Width: 814
VWidth: 0
Flags: W
HStem: -113 66<216.942 593.601> 215 88<285.173 318.823> 706 76<232.625 373>
VStem: 147 79<354.799 646.056> 386 79<494.567 611.005> 569 97<420.484 681.354>
LayerCount: 2
Back
Fore
SplineSet
293 303 m 0
 329 303 386 474 386 513 c 0
 386 594 331 706 259 706 c 0
 183 706 220 591 226 515 c 24
 233 429 206 303 293 303 c 0
412 -117 m 0
 290 -105 180 -115 100 -113 c 0
 72 -112 155 8 166 0 c 0
 239 -53 375 -46 414 -47 c 0
 461 -48 602 -60 616 -29 c 0
 661 68 594 218 379 215 c 0
 264 213 145 318 147 457 c 0
 148 544 130 644 115 678 c 0
 105 701 244 782 326 782 c 0
 420 782 465 674 465 602 c 0
 465 471 336 301 336 301 c 0
 359 285 498 293 514 309 c 0
 575 370 572 428 569 528 c 0
 565 669 566 668 549 682 c 0
 549 682 597 752 606 752 c 10
 664 752 l 26
 666 487 l 18
 667 409 546 309 561 295 c 0
 577 280 711 211 713 80 c 0
 715 -14 621 -137 412 -117 c 0
EndSplineSet
Validated: 33
EndChar

StartChar: ADLAM_CAPITAL_LETTER_ZAL
Encoding: 31 125215 33
Width: 712
VWidth: 0
Flags: W
HStem: 71 56<249.969 429.251> 641 52<253.355 447.81>
VStem: 97 55<497.255 582.622> 104 64<190.655 300.766> 509 51<481.033 585.444> 546 66<161.785 163.999 168.894 286.145>
LayerCount: 2
Back
Fore
SplineSet
378 127 m 0xd4
 408 127 541 135 546 213 c 0
 546 216 546 219 546 222 c 0
 546 302 471 333 396 369 c 0
 374 379 318 394 281 394 c 0
 271 394 261 393 255 390 c 0
 197 366 169 313 168 256 c 0
 168 255 168 254 168 253 c 0
 168 159 277 127 378 127 c 0xd4
346 71 m 0
 339 71 332 71 325 71 c 0
 229 71 104 87 104 218 c 0
 104 220 104 222 104 224 c 0xd4
 107 348 231 378 231 403 c 0
 231 425 97 406 97 528 c 0
 97 529 97 531 97 532 c 0
 99 607 236 685 354 692 c 16
 365 693 377 693 389 693 c 0
 474 693 560 670 560 561 c 0
 560 510 502 461 502 461 c 0
 502 461 509 482 509 511 c 0
 509 564 484 641 345 641 c 0
 342 641 338 641 335 641 c 0
 253 641 154 639 152 550 c 0
 152 549 152 549 152 548 c 0xe8
 152 455 291 456 374 433 c 0
 485 403 612 361 612 259 c 0
 612 257 612 256 612 255 c 0
 607 84 402 -67 385 -67 c 0
 384 -67 384 -67 384 -66 c 0
 384 -56 549 61 553 159 c 0
 553 163 552 164 549 164 c 0
 530 164 440 73 346 71 c 0
EndSplineSet
Validated: 1
EndChar

StartChar: ADLAM_CAPITAL_LETTER_KPO
Encoding: 32 125216 34
Width: 698
VWidth: 0
Flags: W
HStem: -10 60<283.323 417.361> 408 62<284.078 359.118> 602 69<306.374 464.665>
VStem: 112 84<339.732 466.184> 387 71<266.385 377.984> 518 52<229.707 540.837>
LayerCount: 2
Back
Fore
SplineSet
368 602 m 27
 232 602 196 434 196 298 c 27
 196 184 238 50 352 50 c 3
 475 50 518 225 518 349 c 3
 518 553.157226562 494 602 368 602 c 27
292 96 m 0
 264 82 383 162 387 297 c 0
 389 348 362 410 317 408 c 0
 270 406 233 277 235 322 c 0
 240 421 281 470 356 470 c 0
 423 470 459 413 458 353 c 0
 457 230 328 113 292 96 c 0
120 305 m 1048
582 -40 m 4
 582 -59.2978515625 603.284179688 -24.1396484375 566 -18 c 2
 502.8203125 -7.595703125 381.294921875 -12.2275390625 336 -10 c 0
 275 -7 147.458007812 -41.86328125 132 9 c 0
 101 111 126 357 112 585 c 0
 111 596 85 609 96 609 c 3
 121 609 149 648 164 648 c 3
 197 648 189 572 196 572 c 3
 203 572 296 671 383 671 c 3
 571.65234375 671 570 498.743164062 570 342 c 3
 570 166.061523438 407 46.341796875 437 50 c 1
 435 28 602 55 597.465820312 29 c 4
 593.09375 3.93359375 582 -15.126953125 582 -40 c 4
EndSplineSet
Validated: 524325
EndChar

StartChar: ADLAM_CAPITAL_LETTER_SHA
Encoding: 33 125217 35
Width: 710
VWidth: 0
Flags: W
HStem: 173 57<237.125 450.094>
VStem: 140 62<325.17 574.236> 373 43<400.794 523.31> 546 63<351.734 587.146>
LayerCount: 2
Back
Fore
SplineSet
361 615 m 27
 408 615 416 554 416 507 c 27
 416 415 353.150390625 291 320 291 c 3
 294.368164062 291 373 373.500976562 373 474 c 3
 373 523 301 568 301 577 c 3
 301 591 333 615 361 615 c 27
551 -30 m 0
 501 -11 364 0 243 -9 c 0
 169 -15 129 67 127 141 c 0
 123 305 150 393 140 555 c 24
 139 579 95 574 98 597 c 0
 99 604 158 646 168 633 c 0
 206 587 201 524 202 447 c 0
 203.20703125 354.09375 134 228 362 230 c 0
 573 232 541 331 546 439 c 0
 552 566 542 546 529 590 c 0
 525 604 588 644 600 644 c 0
 610 644 610 549 609 497 c 0
 604 270 504 181 339 173 c 0
 272 170 185 205 187 186 c 2
 181 186 168 88 192 75 c 0
 263 35 580 70 583 58 c 10
 599 9 l 18
 601 1 564 -35 551 -30 c 0
EndSplineSet
Validated: 524321
EndChar

StartChar: ADLAM_SMALL_LETTER_ALIF
Encoding: 34 125218 36
Width: 692
VWidth: 0
Flags: W
HStem: -19 56.0703<294.708 422.496>
VStem: 144.65 75.6494<204.359 429.602> 505.9 75.6494<130.727 281.414>
LayerCount: 2
Back
Fore
SplineSet
326.549804688 -19 m 0
 207.549804688 -17.2197265625 146.349609375 79.7900390625 144.650390625 218.629882812 c 0
 143.799804688 296.059570312 155.700195312 411.759765625 146.349609375 417.099609375 c 10
 97.0498046875 442.91015625 l 18
 82.599609375 450.919921875 141.25 474.950195312 172.700195312 474.950195312 c 24
 194.799804688 474.950195312 221.150390625 465.16015625 220.299804688 442.91015625 c 0
 214.349609375 154.549804688 230.5 38.849609375 378.400390625 37.0703125 c 0
 458.299804688 36.1796875 505.900390625 117.169921875 505.900390625 195.490234375 c 24
 505.900390625 273.809570312 458.299804688 347.6796875 378.400390625 353.01953125 c 0
 289.150390625 359.25 256.849609375 328.990234375 260.25 343.23046875 c 0
 264.5 363.700195312 340.150390625 420.66015625 455.75 418.879882812 c 0
 554.349609375 417.990234375 581.549804688 424.219726562 593.450195312 409.98046875 c 0
 613.849609375 384.169921875 539.900390625 380.610351562 537.349609375 347.6796875 c 24
 533.950195312 290.719726562 584.950195312 283.599609375 581.549804688 207.950195312 c 0
 575.599609375 85.1298828125 436.200195312 -20.7802734375 326.549804688 -19 c 0
EndSplineSet
Validated: 524321
EndChar

StartChar: ADLAM_SMALL_LETTER_LAAM
Encoding: 36 125220 37
Width: 728
VWidth: 0
Flags: W
HStem: -16 79<220 531.376> 502 73<286.531 459.267>
VStem: 103 127<252.689 413.406> 533 94<64.3794 450.391>
LayerCount: 2
Back
Fore
SplineSet
171 217 m 24
 125 237 104 273 103 328 c 0
 101 451 248 579 406 575 c 0
 654 569 629 403 627 260 c 0
 626 179 643 65 627 51 c 10
 545 -18 l 18
 526 -34 438 -16 369 -16 c 24
 267 -16 91 -38 107 -18 c 10
 193 86 l 26
 220 63 l 26
 533 63 l 26
 533 408 l 18
 533 474 404 501 361 502 c 0
 255 504 164 460 230 270 c 0
 240 241 200 204 171 217 c 24
EndSplineSet
Validated: 33
EndChar

StartChar: ADLAM_SMALL_LETTER_MIIM
Encoding: 37 125221 38
Width: 660
VWidth: 0
Flags: W
HStem: -14 77<181.162 459> -10 94<181 368.55>
VStem: 105 371<222 360>
LayerCount: 2
Back
Fore
SplineSet
466 416 m 0x20
 464 449 431 506 320 514 c 0
 226 521 187 514 195 432 c 0
 202 367 266 347 334 331 c 0
 372 322 417 305 431 311 c 0
 484 334 468 377 466 416 c 0x20
365 594 m 0
 461 590 556 497 558 440 c 0
 562 333 475 360 476 295 c 24
 477 222 570 270 562 129 c 0
 556 18 557 92 543 76 c 26
 459 -14 l 26xa0
 99 -10 l 26
 181 84 l 18x60
 184 88 216 65 351 63 c 0xa0
 402 62 480 23 468 121 c 0
 449 275 105 222 105 408 c 0
 105 514 240 599 365 594 c 0
EndSplineSet
Validated: 33
EndChar

StartChar: ADLAM_SMALL_LETTER_BA
Encoding: 38 125222 39
Width: 649
VWidth: 0
Flags: W
VStem: 100 68<380.756 591.856> 268 60<149 151 184.747 377.193> 463 52<266.842 351.955>
LayerCount: 2
Back
Fore
SplineSet
332 190 m 0
 333 160 463 242 463 279 c 0
 463 341 428 380 383 384 c 0
 362 386 328 372 328 351 c 0
 329 274 330 264 332 190 c 0
171 -40 m 0
 58 0 133 445 100 581 c 0
 96 598 168 614 168 614 c 0
 186 523 167 353 180 252 c 0
 189 182 268 149 270 168 c 0
 277 228 264 323 268 373 c 0
 270 397 356 425 426 423 c 0
 479 421 515 382 515 332 c 0
 515 223 335 151 335 151 c 2
 328 144 342 77 342 77 c 2
 346 40 526 81 549 63 c 0
 573 45 548 0 535 -9 c 0
 516 -22 499 12 476 12 c 0
 430 12 377 -6 333 8 c 24
 299 19 287 12 278 60 c 0
 273 84 283 125 265 127 c 10
 265 127 184 157 184 136 c 3
 184 43 191 10 210 -22 c 24
 218 -36 187 -46 171 -40 c 0
EndSplineSet
Validated: 33
EndChar

StartChar: ADLAM_SMALL_LETTER_DAALI
Encoding: 35 125219 40
Width: 610
VWidth: 0
Flags: W
VStem: 384 122<33.4993 81.1279> 400 57<167.386 439.244>
LayerCount: 2
Back
Fore
SplineSet
411 1 m 0x80
 381 2 313 -12 248 -12 c 0
 190 -12 128 -13 106 9 c 0
 106 9 156 74 167 65 c 0
 192 45 384 24 384 38 c 0x80
 383 118 166 181 136 215 c 0
 114 240 162 319 101 376 c 9
 191 431 l 18
 216 447 197 325 194 275 c 0
 192 235 408 136 408 136 c 0
 394 191 401 244 400 395 c 0
 399 577 393 559 362 581 c 9
 453 625 l 18
 480 638 453 384 457 214 c 0x40
 459 125 505 64 506 -14 c 0
 506 -37 431 0 411 1 c 0x80
EndSplineSet
Validated: 33
EndChar

StartChar: ADLAM_SMALL_LETTER_SINNYIIYHE
Encoding: 39 125223 41
Width: 804
VWidth: 0
Flags: W
HStem: -11 52<506.524 579.875>
VStem: 122 74<103.339 569.597> 394 76<83.9587 355.943> 623 73<106.531 368.96>
LayerCount: 2
Back
Fore
SplineSet
300 -6 m 0
 180 -5 126 26 122 324 c 0
 122 330 122 335 122 341 c 0
 122 399 125 441 125 491 c 0
 125 515 124 541 122 571 c 8
 121 581 92 583 101 588 c 26
 198 645 l 26
 196 152 l 26
 196 91 230 59 320 57 c 0
 321 57 324 57 325 57 c 0
 387 57 399 85 399 125 c 0
 399 151 394 181 394 214 c 0
 394 218 394 223 394 227 c 0
 396 277 396 356 396 356 c 10
 380 371 l 26
 476 424 l 26
 470 391 l 18
 469 385 468 360 468 329 c 0
 468 291 469 242 470 203 c 0
 472 132 485 41 555 41 c 0
 556 41 557 41 558 41 c 8
 628 44 618 140 622 209 c 0
 623 225 623 242 623 260 c 0
 623 314 619 369 619 369 c 10
 605 381 l 26
 703 430 l 26
 695 399 l 18
 692 390 692 379 692 366 c 0
 692 333 698 290 698 247 c 0
 698 239 697 231 697 223 c 0
 696 210 696 198 696 186 c 0
 696 178 696 171 696 163 c 0
 696 117 671 105 639 66 c 8
 602 21 563 -11 505 -11 c 24
 458 -11 418 51 404 51 c 0
 397 51 364 -6 302 -6 c 0
 301 -6 301 -6 300 -6 c 0
EndSplineSet
Validated: 1
EndChar

StartChar: ADLAM_SMALL_LETTER_PE
Encoding: 40 125224 42
Width: 654
VWidth: 0
Flags: W
HStem: -9 95<187.595 246.984> -8 65<271.147 496.708> 501 82<226.396 416.255>
VStem: 103 77<89.7011 478.898> 457 91<311.774 459.759>
LayerCount: 2
Back
Fore
SplineSet
457 340 m 0xb8
 457 341 456.993197436 341.000023138 457 342 c 0
 458 489 418 501 292 501 c 0
 291 501 289 501 288 501 c 0
 194 501 181 471 181 411 c 0
 181 352.975031854 180 277.985882072 180 216 c 0
 180 150 176 86 203 86 c 4
 205 86 207 86 210 87 c 4
 227 93 456 217 457 340 c 0xb8
313 -8 m 0x78
 309 -8 304 -8 300 -8 c 0x78
 266 -8 237 -9 213 -9 c 0xb8
 115 -9 101 1 101 94 c 0
 101 132 103 184 103 255 c 0
 103 265 103 275 103 285 c 0
 103 297 103 309 103 320 c 0
 103 543 124 557 168 557 c 0
 174 557 180 556 187 556 c 0
 199 556 212 557 227 561 c 0
 277 575 270 583 351 583 c 0
 353 583 356 583.020507812 358 583 c 0
 456 582 548 491 548 410 c 0
 548 407 548 404 548 401 c 0
 539 190 268 117 268 70 c 0
 268 67 269 65 271 62 c 0
 274 58 286 57 303 57 c 0
 360 57 476 74 529 74 c 0
 546 74 556 72 556 67 c 0
 556 66 556 67 556 66 c 10
 507 -39 l 26
 470 -6 l 18
 448 13 374 -8 313 -8 c 0x78
EndSplineSet
Validated: 524321
EndChar

StartChar: ADLAM_SMALL_LETTER_BHE
Encoding: 41 125225 43
Width: 738
VWidth: 0
Flags: W
HStem: 10 66<204.157 524.436> 494 71<236.5 481.314>
VStem: 531 74<86.4464 291.908>
LayerCount: 2
Back
Fore
SplineSet
385 10 m 24
 279 4 113 -24 113 39 c 0
 113 74 164 127 179 125 c 0
 220 119 123 75 406 76 c 0
 564 76 525 101 531 190 c 0
 534 239 532 271 514 290 c 0
 496 309 385 181 281 184 c 0
 187 187 100 263 101 348 c 0
 102 449 175 497 254 557 c 0
 289 584 367 559 437 565 c 0
 562 575 633 640 635 618 c 0
 639 569 479 492 334 494 c 0
 268 495 187 487 193 399 c 0
 199 317 261 260 357 266 c 0
 424 270 463 300 510 348 c 0
 546 385 512 448 557 473 c 0
 643 520 603 368 605 295 c 24
 608 200 628 130 570 55 c 24
 524 -4 460 14 385 10 c 24
EndSplineSet
Validated: 33
EndChar

StartChar: ADLAM_SMALL_LETTER_RA
Encoding: 42 125226 44
Width: 742
VWidth: 0
Flags: W
HStem: -10 80<265.741 565.005> 150 83<294.839 426.078>
LayerCount: 2
Back
Fore
SplineSet
381 -10 m 0
 111 -10 129 0 127 297 c 0
 126 433 168 498 99 528 c 25
 405 751 5 246 397 233 c 0
 483 230 530 292 536 403 c 0
 542 505 516 528 516 528 c 10
 638 618 l 18
 651 628 621 524 628 463 c 0
 634 406 499 150 352 150 c 0
 276 150 221 190 212 170 c 0
 194 127 240 74 381 70 c 0
 482 67 613 117 642 84 c 0
 653 72 598 -26 588 -14 c 0
 558 22 461 -10 381 -10 c 0
EndSplineSet
Validated: 33
EndChar

StartChar: ADLAM_SMALL_LETTER_E
Encoding: 43 125227 45
Width: 749
VWidth: 0
Flags: HW
HStem: -29 82<507.525 561.757> 532 80<275.374 483.937>
VStem: 98 86<114.408 414.31> 577 72<68.7723 195.719>
LayerCount: 2
Back
Fore
SplineSet
460 53 m 0
 580 50 576 85 577 147 c 0
 578 201 519 231 464 231 c 24
 404 231 335 180 333 150 c 0
 329 72 403 54 460 53 c 0
251 94 m 0
 271 92 260 196 376 266 c 0
 451 312 536 399 534 430 c 0
 529 502 466 532 382 532 c 0
 220 532 188 490 184 322 c 0
 182 222 151 104 251 94 c 0
212 -29 m 0
 116 -29 97 139 98 256 c 0
 100 520 225 612 411 612 c 0
 506 612 614 568 614 479 c 0
 614 405 526 327 526 318 c 0
 526 300 649 317 649 137 c 0
 649 62 649 -29 575 -29 c 0
 550 -29 560 -10 458 0 c 0
 381 8 298 37 261 35 c 0
 230 33 244 -29 212 -29 c 0
EndSplineSet
Validated: 33
EndChar

StartChar: ADLAM_SMALL_LETTER_FA
Encoding: 44 125228 46
Width: 656
VWidth: 0
Flags: HW
HStem: 379 78<293.84 400.99> 546 70<267 447.069>
VStem: 105 86<161.201 337.692 365.33 443.312> 480 74<165.68 294.615>
LayerCount: 2
Back
Fore
SplineSet
300 -72 m 2
 267 -112 477 75 480 203 c 0
 482 292 421 376 333 379 c 0
 218 382 190 326 191 252 c 0
 193 96 279 156 279 143 c 0
 279 128 204 74 175 76 c 0
 111 80 105 160 105 305 c 0
 105 519 220 612 374 616 c 0
 450 618 542 603 556 549 c 0
 558 541 532 449 484 449 c 0
 472 449 507 548 351 546 c 0
 274 545 185 567 185 438 c 0
 185 407 154 354 185 358 c 24
 270 369 244 455 378 457 c 0
 478 459 555 318 554 242 c 0
 552 95 284 -97 300 -72 c 2
EndSplineSet
Validated: 37
EndChar

StartChar: ADLAM_DIGIT_ZERO
Encoding: 80 125264 47
Width: 770
VWidth: 0
Flags: HW
HStem: -98 98<241 337> 602 76<283 431>
VStem: 90 76<110 429> 573 96<187 409>
LayerCount: 2
Back
Fore
SplineSet
254 -98 m 0
 115 -96 92 75 90 221 c 0
 90 226 90 230 90 235 c 0
 90 533 217 676 389 678 c 0
 390 678 391 678 392 678 c 0
 564 678 665 523 670 330 c 0
 670 326 670 322 670 318 c 0
 670 102 501 -92 430 -92 c 0
 424 -92 422 -92 422 -91 c 0
 422 -84 573 -40 573 210 c 0
 573 502 474 602 336 602 c 0
 335 602 335 602 334 602 c 0
 197 601 166 558 166 309 c 0
 166 171 181 0 307 0 c 0
 451 0 469 332 469 332 c 0
 475 332 480 308 480 271 c 0
 480 152 434 -98 256 -98 c 0
 255 -98 255 -98 254 -98 c 0
EndSplineSet
Validated: 1
EndChar

StartChar: ADLAM_DIGIT_ONE
Encoding: 81 125265 48
Width: 290
VWidth: 0
Flags: HW
VStem: 100 89
LayerCount: 2
Back
Fore
SplineSet
187 -49 m 0
 187 -74 136 -101 136 -101 c 26
 111 -76 l 18
 111 -76 100 331 100 544 c 0
 100 574 100 601 101 622 c 0
 102 642 173 680 173 680 c 26
 189 652 l 18
 189 652 186 333 186 112 c 0
 186 46 186 -12 187 -49 c 0
EndSplineSet
Validated: 1
EndChar

StartChar: ADLAM_DIGIT_TWO
Encoding: 82 125266 49
Width: 530
VWidth: 0
Flags: HW
HStem: 440 59<283.097 332.442>
VStem: 257 70<577.177 696.875> 354 66<-31.1548 394.65>
LayerCount: 2
Back
Fore
SplineSet
353 -38 m 0
 351 -9 350 21 350 52 c 0
 350 127 354 205 354 270 c 0
 354 367 345 439 298 440 c 0
 297 440 297 440 296 440 c 0
 214 440 134 323 110 323 c 0
 109 323 108 323 107 324 c 0
 102 327 100 331 100 335 c 0
 100 363 189 419 219 473 c 0
 249 527 250 597 257 671 c 0
 258 684 294 713 315 713 c 0
 316 713 317 713 318 713 c 0
 324 712 327 703 327 690 c 0
 327 667 319 630 313 603 c 0
 305 565 282 530 282 512 c 0
 282 509 282 507 283 505 c 0
 285 501 291 499 298 499 c 0
 315 499 342 508 358 508 c 0
 359 508 360 508 361 508 c 0
 417 503 429 457 429 397 c 0
 429 347 420 288 420 237 c 0
 420 151 424 124 425 16 c 0
 425 -13 411 -23 386 -39 c 16
 380 -43 371 -46 364 -46 c 0
 358 -46 353 -44 353 -38 c 0
EndSplineSet
Validated: 1
EndChar

StartChar: ADLAM_DIGIT_THREE
Encoding: 83 125267 50
Width: 734
VWidth: 0
Flags: HW
HStem: -102 91<239.273 560.498> 278 66<316.037 396.016>
VStem: 102 90<24.3118 90.8309> 199 76<390.471 667.965> 516 118<480.331 687.967>
LayerCount: 2
Back
Fore
SplineSet
370 -102 m 0
 253 -101 102 -86 102 31 c 0
 102 109 223 204 316 242 c 0
 425 286 491 282 532 408 c 0
 532 409 533 409 533 410 c 0
 533 411 532 411 532 411 c 0
 522 411 415 278 330 278 c 0
 323 278 317 279 311 281 c 0
 245 299 199 382 199 469 c 0
 199 471 199 473 199 475 c 0
 201 577 202 711 264 711 c 0
 266 711 269 711 272 711 c 0
 284 709 288 693 288 670 c 0
 288 627 275 557 275 493 c 0
 275 415 295 346 381 344 c 0
 382 344 382 344 383 344 c 0
 456 344 516 425 516 549 c 0
 516 551 516 553 516 555 c 0
 516 561 516 568 516 575 c 0
 516 634 521 705 573 705 c 0
 574 705 576 705 577 705 c 0
 621 702 634 663 634 617 c 0
 634 587 628 553 622 524 c 8
 599 416 577 341 489 276 c 0
 380 196 230 212 194 78 c 16
 192 72 192 66 192 61 c 0
 192 -9 330 -4 415 -10 c 0
 430 -11 446 -11 463 -11 c 0
 480 -11 496 -11 512 -11 c 0
 559 -11 600 -13 600 -30 c 0
 600 -32 599 -34 598 -37 c 0
 569 -95 512 -104 449 -104 c 0
 423 -104 396 -102 370 -102 c 0
EndSplineSet
Validated: 1
EndChar

StartChar: ADLAM_DIGIT_FOUR
Encoding: 84 125268 51
Width: 702
VWidth: 0
Flags: HW
VStem: 98 68<89.7505 150.267>
LayerCount: 2
Back
Fore
SplineSet
98 83 m 0
 97 195 301 312 304 325 c 0
 344 497 288 703 309 709 c 10
 394 732 l 26
 380 356 l 18
 378 302 567 516 558 481 c 0
 529 370 367 301 349 292 c 0
 282 258 166 228 166 138 c 0
 166 44 310 70 397 66 c 0
 477 62 617 88 602 63 c 10
 545 -31 l 26
 207 -8 l 26
 208 0 l 26
 155 1 98 30 98 83 c 0
EndSplineSet
Validated: 33
EndChar

StartChar: ADLAM_DIGIT_FIVE
Encoding: 85 125269 52
Width: 762
VWidth: 0
Flags: HW
HStem: -74 74<250.668 398.04>
VStem: 136 79<-30 91.5>
LayerCount: 2
Back
Fore
SplineSet
299 487 m 0
 183 339 221 346 317 286 c 0
 364 257 412 246 458 282 c 0
 523 332 537 350 463 454 c 0
 370 586 366 572 299 487 c 0
401 688 m 10
 401 688 608 449 611 378 c 0
 613 336 400 206 400 206 c 26
 400 206 402 177 385 168 c 0
 344 148 215 115 215 68 c 0
 215 17 303 0 369 0 c 0
 533 0 582 169 596 207 c 0
 604 229 601 262 618 264 c 10
 662 269 l 26
 656 202 l 26
 656 202 549 37 439 -29 c 0
 390 -58 362 -74 304 -74 c 0
 230 -74 136 -67 136 7 c 24
 136 103 305 139 305 186 c 0
 305 252 101 251 101 309 c 0
 101 332 191 421 245 498 c 0
 292 566 379 720 401 688 c 10
EndSplineSet
Validated: 33
EndChar

StartChar: ADLAM_DIGIT_SIX
Encoding: 86 125270 53
Width: 660
VWidth: 0
Flags: HW
HStem: 0 21G<134 187> 404 2<181 282>
VStem: 125 75<112.555 378.107> 490 70<160.653 319.346>
LayerCount: 2
Back
Fore
SplineSet
346 404 m 0
 168 404 200 346 200 203 c 0
 200 13 229 67 227 35 c 0
 225 8 206 0 168 0 c 0
 100 0 121 217 125 355 c 0
 132 637 98 635 100 655 c 0
 102 680 144 701 175 701 c 0
 255 701 158 498 206 498 c 0
 253 498 410 580 452 651 c 0
 468 678 490 705 512 705 c 0
 530 705 543 680 533 666 c 24
 490 604 457 571 392 531 c 24
 326 491 270 508 207 465 c 24
 188 452 181 407 205 406 c 0
 282 404 324 460 406 460 c 0
 487 460 560 418 560 259 c 0
 561 49 273 -128 248 -101 c 0
 233 -84 491 -14 490 223 c 0
 490 314 436 404 346 404 c 0
EndSplineSet
Validated: 33
EndChar

StartChar: ADLAM_DIGIT_SEVEN
Encoding: 87 125271 54
Width: 852
VWidth: 0
Flags: HW
HStem: 240 88<381.804 496.064>
LayerCount: 2
Back
Fore
SplineSet
385 640 m 24
 315 648 217 613 234 544 c 24
 265 423 339 328 465 328 c 0
 540 328 624 416 602 500 c 24
 577 596 483 629 385 640 c 24
423 240 m 0
 372 238 227 74 169 18 c 0
 144 -6 174 -54 143 -72 c 24
 123 -84 85 -48 99 -29 c 24
 191 96 375 218 378 257 c 0
 388 385 148 366 155 495 c 24
 162 622 278 693 405 703 c 24
 530 713 677 666 676 541 c 0
 675 367 499 335 500 298 c 0
 502 243 697 179 753 57 c 24
 781 -2 741 -67 682 -96 c 24
 642 -115 701 -18 673 18 c 24
 594 119 551 245 423 240 c 0
EndSplineSet
Validated: 33
EndChar

StartChar: ADLAM_DIGIT_EIGHT
Encoding: 88 125272 55
Width: 781
VWidth: 0
Flags: HW
HStem: -48 87<230.341 442.791>
VStem: 103 74<88.0817 174.25> 525 73<90.2157 178.999>
LayerCount: 2
Back
Fore
SplineSet
375 39 m 0
 472 40 525 48 525 114 c 0
 525 193 370 359 345 359 c 0
 332 359 177 222 177 151 c 0
 177 46 289 38 375 39 c 0
330 -48 m 0
 223 -50 105 -13 103 93 c 24
 100 236 297 331 322 384 c 0
 344 432 62 585 121 646 c 0
 210 738 252 455 379 445 c 0
 457 439 640 736 681 687 c 0
 725 634 412 427 412 415 c 0
 414 365 600 281 598 174 c 0
 596 45 471 -46 330 -48 c 0
EndSplineSet
Validated: 33
EndChar

StartChar: ADLAM_DIGIT_NINE
Encoding: 89 125273 56
Width: 695
VWidth: 0
Flags: HW
HStem: 663 75<275.578 432.97>
VStem: 220 1<110 314> 518 77<480.289 588.795>
LayerCount: 2
Back
Fore
SplineSet
518 519 m 0
 518 609 431 661 341 663 c 0
 302 664 207 649 173 587 c 24
 149 544 186 524 200 480 c 0
 216 432 200 356 272 355 c 0
 384 353 518 409 518 519 c 0
229 -69 m 0
 176 -69 131 -25 130 32 c 0
 128 263 220 284 220 314 c 0
 220 340 100 395 100 534 c 0
 100 628 233 739 399 738 c 0
 507 737 593 653 595 546 c 0
 597 448 452 359 303 298 c 0
 237 271 221 180 221 110 c 0
 221 -70 311 27 311 -42 c 0
 311 -64 263 -69 229 -69 c 0
EndSplineSet
Validated: 33
EndChar

StartChar: ADLAM_INITIAL_EXCLAMATION_MARK
Encoding: 94 125278 57
Width: 746
VWidth: 0
Flags: W
HStem: 600 44<110.843 310.792>
VStem: 106 62<125.231 307.728> 469 72<-25.2119 350.277>
LayerCount: 2
Back
Fore
SplineSet
234 0 m 0
 185 -39 104 86 106 172 c 0
 112 469 324 467 324 467 c 1
 338 649 317 567 98 600 c 0
 70 604 101 640 129 644 c 0
 226 658 283 647 383 649 c 0
 619 653 647 720 647 694 c 0
 645 559 403 650 395 551 c 0
 381 378 543 485 541 213 c 0
 540 125 537 -96 580 -137 c 0
 608 -163 481 -131 481 -131 c 18
 455 -129 485 57 469 176 c 24
 458 257 491 370 410 377 c 0
 363 381 457 31 336 33 c 0
 297 34 417 412 268 406 c 0
 221 404 162 334 168 203 c 0
 172 120 260 21 234 0 c 0
EndSplineSet
Validated: 33
EndChar

StartChar: ADLAM_INITIAL_QUESTION_MARK
Encoding: 95 125279 58
Width: 713
VWidth: 0
Flags: HW
HStem: 58 65<214.078 330.501> 428 85<323.594 449.139> 649 63<302.996 513.462>
VStem: 100 59<175.615 321.167> 164 63<539.736 597.827> 497 72<-13.4918 381.455> 560 53<525.022 609.215>
LayerCount: 2
Back
Fore
SplineSet
245 66 m 0xfc
 159 66 100 148 100 227 c 0
 100 399 298 513 432 513 c 0
 434 513 438 513 440 513 c 0
 455 513 476 510 495 510 c 0
 529 510 560 518 560 561 c 0
 560 628 474 648 403 649 c 0
 400 649 397 649 394 649 c 0
 236 649 230 598 227 571 c 0
 224 547 195 532 187 532 c 0
 186 532 l 0
 176 536 164 556 164 569 c 0
 164 573 165 578 167 580 c 0
 245 658 293 712 413 712 c 0
 508 712 611 648 613 586 c 0
 613 585 613 584 613 584 c 0xfa
 613 511 526 481 526 465 c 0
 526 438 565 475 569 211 c 0
 569 208 569 204 569 201 c 0
 569 155 566 104 566 62 c 0
 566 20 569 -15 581 -33 c 10
 604 -68 l 26
 534 -113 l 26
 505 -86 l 18
 497 -78 497 95 497 225 c 0
 497 242 498 262 498 279 c 0
 498 355 486 423 364 428 c 0
 359 428 354 428 349 428 c 0
 231 428 159 370 159 276 c 0
 159 275 159 275 159 274 c 0
 160 142 218 127 337 123 c 0
 344 123 347 118 347 113 c 0
 347 101 333 80 319 68 c 0
 311 61 303 58 294 58 c 0
 278 58 260 66 245 66 c 0xfc
EndSplineSet
Validated: 1
EndChar

StartChar: NameMe.45
Encoding: 45 125229 59
Width: 779
VWidth: 0
Flags: HW
HStem: -29 74<327.016 492.37>
VStem: 589 89<165.516 460.02>
LayerCount: 2
Back
Fore
SplineSet
360 -29 m 0
 206 -28 130 106 127 258 c 0
 125 354 122 478 99 504 c 0
 83 522 140 561 188 561 c 0
 229 561 118 36 423 45 c 0
 584 50 581 69 589 305 c 0
 595 477 565 459 536 477 c 0
 522 486 665 583 679 555 c 0
 679 555 678 420.004882812 678 307 c 0
 678 76 541 -30 360 -29 c 0
EndSplineSet
Validated: 524321
EndChar

StartChar: ADLAM_SMALL_LETTER_O
Encoding: 46 125230 60
Width: 846
VWidth: 0
Flags: HW
HStem: 152 80<273.091 453.327> 618 70<332.255 516.427>
VStem: 99 92<311.453 458.814>
LayerCount: 2
Back
Fore
SplineSet
507 240 m 26
 503 172 l 26
 464 104 l 26
 445 152 l 18
 438 170 401 152 310 152 c 0
 173 152 97 254 99 350 c 0
 103 539 260 683 449 688 c 0
 614 692 747 555 746 393 c 0
 744 156 462 23 384 -35 c 0
 338 -70 667 154 656 369 c 0
 649 503 555 619 421 618 c 0
 307 617 193 574 191 412 c 0
 190 314 237 230 374 232 c 0
 426 233 510 292 507 240 c 26
EndSplineSet
Validated: 37
EndChar

StartChar: ADLAM_SMALL_LETTER_DHA
Encoding: 47 125231 61
Width: 829
VWidth: 0
Flags: HW
HStem: -10 84<348.339 532.241> 539 69<319.203 516.687>
VStem: 99 77<228.396 388.18> 643 84<131.833 416.027>
LayerCount: 2
Back
Fore
SplineSet
469 74 m 0
 610 75 645 106 643 299 c 0
 642 429 581 533 410 539 c 0
 267 544 174 488 176 326 c 0
 178 172 318 73 469 74 c 0
449 -10 m 0
 242 -5 99 100 99 276 c 0
 99 456 269 608 418 608 c 0
 522 608 590 559 633 563 c 0
 667 566 616 651 637 651 c 10
 729 653 l 26
 727 137 l 18
 727 104 517 -12 449 -10 c 0
EndSplineSet
Validated: 33
EndChar

StartChar: ADLAM_SMALL_LETTER_YHE
Encoding: 48 125232 62
Width: 755
VWidth: 0
Flags: HW
VStem: 98 78<173.402 388.221>
LayerCount: 2
Back
Fore
SplineSet
297 -18 m 0
 177 -30 95 162 98 333 c 0
 100 421 225 490 344 540 c 0
 369 550 226 572 215 607 c 0
 213 612 287 678 297 671 c 0
 483 532 671 546 655 542 c 0
 645 540 624 493 594 476 c 0
 555 453 510 484 432 480 c 0
 317 474 172 567 176 265 c 0
 178 116 264 74 440 72 c 0
 519 71 614 106 649 75 c 0
 664 62 597 -51 577 -28 c 0
 555 -4 536 7 297 -18 c 0
EndSplineSet
Validated: 33
EndChar

StartChar: ADLAM_SMALL_LETTER_WAW
Encoding: 49 125233 63
Width: 767
VWidth: 0
Flags: HW
HStem: 196 92<269.07 372.574> 501 80<427.29 581.281>
VStem: 99 101<63.5612 186.789> 525 99<28.3278 377.881>
LayerCount: 2
Back
Fore
SplineSet
243 -71 m 0
 139 -70 99 -2 99 153 c 0
 99 396 355 583 552 581 c 0
 590 581 636 587 644 550 c 1
 626 525 624 379 624 269 c 0
 624 163 614 44 667 0 c 1
 667 -30 648 -59 619 -58 c 0
 527 -55 442 91 443 218 c 0
 445 447 645 500 538 501 c 0
 360 503 198 468 198 275 c 0
 198 216 289 288 347 288 c 0
 401 288 464 277 464 232 c 1
 460 220 433 165 413 163 c 1
 366 169 342 195 296 196 c 1
 217 197 197 198 200 120 c 0
 204 27 329 -15 329 -15 c 0
 339 -54 290 -72 243 -71 c 0
EndSplineSet
Validated: 37
EndChar

StartChar: ADLAM_ALIF_LENGTHENER
Encoding: 68 125252 64
Width: 660
VWidth: 0
Flags: HW
HStem: 678 47<502.029 521.322>
AnchorPoint: "MyAnchor1" 392 651 mark 0
LayerCount: 2
Back
Fore
SplineSet
427 477 m 0
 396 489 408 613 382 629 c 0
 340 655 181 606 99 702 c 0
 76 729 178 708 243 713 c 0
 406 725 403 663 419 663 c 0
 435 663 438 727 491 725 c 0
 523 724 578 694 560 678 c 0
 543 663 455 663 443 582 c 0
 437 541 452 468 427 477 c 0
EndSplineSet
Validated: 33
EndChar

StartChar: ADLAM_SMALL_LETTER_SHA
Encoding: 67 125251 65
Width: 904
VWidth: 0
Flags: W
HStem: -92 106<296.734 632.08> 133 80<354.869 466.333>
VStem: 112 125<263.783 526.073> 392 140<552.393 629.054> 684 100<453.046 593.267>
LayerCount: 2
Back
Fore
SplineSet
650 -131 m 0
 629 -103 610 -82 409 -92 c 0
 63 -108 108 20 112 231 c 0
 115 376 154 571 98 602 c 0
 80 612 223 707 224 684 c 2
 252 702 239 559 237 479 c 24
 236 416 199 349 216 287 c 0
 222 264 237 270 285 258 c 0
 301 254 436 418 440 492 c 0
 443 549 392 548 392 590 c 0
 392 633 492 685 495 684 c 0
 525 678 533 630 532 588 c 0
 528 437 320 270 341 248 c 0
 366 220 386 213 437 213 c 0
 573 213 683 397 684 485 c 0
 685 582 679 568 657 600 c 0
 649 611 775 721 804 707 c 0
 822 698 784 604 784 528 c 0
 784 417 564 133 374 133 c 0
 276 133 219 195 210 174 c 0
 181 108 210 13 468 14 c 0
 585 14 766 31 769 12 c 0
 771 0 670 -158 650 -131 c 0
EndSplineSet
Validated: 33
EndChar

StartChar: ADLAM_SMALL_LETTER_NUN
Encoding: 50 125234 66
Width: 717
VWidth: 0
Flags: HW
HStem: 558 78<307.641 488.593>
VStem: 99 82<98.5252 185.656> 151 73<402.052 516.979> 473 79<112.881 288.581>
LayerCount: 2
Back
Fore
SplineSet
531 34 m 0x90
 451 36 473 106 473 161 c 0
 473 213 473 239 478 291 c 25
 564 353 l 25
 559 290 553 253 552 189 c 0
 551 110 584 106 617 83 c 1
 592 46 570 33 531 34 c 0x90
238 -26 m 24
 168 6 99 44 99 101 c 0xd0
 99 291 394 425 455 423 c 0
 495 422 572 420 552 454 c 24
 510 523 505 560 373 558 c 0
 299 557 201 584 224 443 c 0
 228 421 236 396 187 398 c 0
 157 399 149 439 151 464 c 0xb0
 157 536 282 632 402 636 c 24
 506 640 616 574 616 480 c 0
 616 435 505 364 468 360 c 0
 254 336 183 282 181 167 c 0xd0
 179 71 285 48 287 11 c 1
 294 -12 260 -36 238 -26 c 24
EndSplineSet
Validated: 33
EndChar

StartChar: ADLAM_SMALL_LETTER_KAF
Encoding: 51 125235 67
Width: 975
VWidth: 0
Flags: HW
HStem: 546 74<249.79 435>
LayerCount: 2
Back
Fore
SplineSet
431 -11 m 0
 409 -22 105 -20 107 -17 c 10
 173 69 l 26
 173 69 372 -6 435 75 c 0
 458 104 427 280 427 280 c 18
 423 370 123 301 103 327 c 0
 97 335 163 407 181 409 c 1
 212 409 440 364 439 407 c 10
 435 546 l 2
 163 548 l 26
 228 628 l 18
 237 639 391 618 494 620 c 0
 555 621 718 695 703 636 c 0
 681 546 542 626 515 550 c 0
 497 499 484 455 511 390 c 0
 525 355 721 386 761 505 c 0
 785 577 738 714 775 714 c 10
 863 714 l 26
 863 714 839 311 843 54 c 24
 843 25 875 -11 875 -11 c 26
 875 -11 828 -50 793 -48 c 24
 759 -46 720 0 720 0 c 26
 720 0 750 10 752 26 c 24
 771 164 793 369 773 404 c 0
 755 434 524 312 521 255 c 0
 513 79 449 -2 431 -11 c 0
EndSplineSet
Validated: 33
EndChar

StartChar: ADLAM_SMALL_LETTER_YA
Encoding: 52 125236 68
Width: 736
VWidth: 0
Flags: HW
HStem: -13 63<276.564 497.71> 302 84<296.424 503.511> 566 72<325.053 505.413>
VStem: 542 61<429.036 530.625> 567 79<106.866 241.21>
LayerCount: 2
Back
Fore
SplineSet
341 -13 m 0xe8
 245 -12 132 -38 98 0 c 0
 88 11 129 86 141 110 c 0
 157 143 260 34 393 38 c 0
 516 42 570 42 567 153 c 0xe8
 564 294 469 297 388 302 c 0
 333 306 201 297 247 316 c 2
 175 323 307 382 411 386 c 0
 499 389 545 413 542 474 c 0
 537 560 451 555 382 554 c 0
 267 552 259 532 198 462 c 0
 181 443 140 499 159 513 c 24
 254 584 317 634 435 638 c 24
 514 640 603 605 603 527 c 0xf0
 603 398 518 378 516 347 c 0
 514 318 637 354 636 179 c 0
 635 77 566 -15 341 -13 c 0xe8
EndSplineSet
Validated: 33
EndChar

StartChar: ADLAM_SMALL_LETTER_U
Encoding: 53 125237 69
Width: 747
VWidth: 0
Flags: HW
HStem: 0 95<269.243 359.371> 529 70<234.674 356.018>
VStem: 98 72<185.934 410.836> 409 70<226.246 422.281> 579 68<397.553 511.514>
LayerCount: 2
Back
Fore
SplineSet
438 52 m 0
 528 109 577 117 579 316 c 0
 580 406 610 513 571 517 c 0
 546 520 482 424 479 323 c 0
 476 193 368 90 364 74 c 0
 356 42 422 42 438 52 c 0
409 314 m 24
 408 408 395 525 301 529 c 24
 206 533 172 420 170 325 c 0
 168 222 200 100 305 95 c 0
 389 91 410 220 409 314 c 24
368 0 m 0
 248 0 97 107 98 259 c 0
 99 449 187 599 307 599 c 0
 358 599 544 495 499 495 c 0
 491 495 646 650 647 624 c 0
 656 350 698 0 368 0 c 0
EndSplineSet
Validated: 37
EndChar

StartChar: ADLAM_SMALL_LETTER_JIIM
Encoding: 54 125238 70
Width: 693
VWidth: 0
Flags: HW
HStem: 535 59<191.715 304.771> 555 49<421.586 505.908>
VStem: 100 61<219.106 484.596> 362 55<298.959 467.849> 516 60<64.305 509.507>
LayerCount: 2
Back
Fore
SplineSet
100 362 m 0xb8
 100 527 189 598 272 594 c 0xb8
 305 593 328 571 364 553 c 25
 413 576 453 604 489 604 c 0
 617 604 576 419 576 293 c 0
 576 179 571 34 593 0 c 0
 603 -15 563 -39 548 -39 c 0
 505 -39 514 155 516 279 c 0
 520 504 532 557 454 555 c 0x78
 425 554 412 548 384 538 c 25
 399 476 417 434 417 369 c 0
 417 323 366 242 311 172 c 24
 303 162 278 190 288 199 c 0
 339 242 361 252 362 377 c 0
 363 455 317 536 239 535 c 0
 138 534 164 495 161 406 c 0
 159 349 162 284 177 230 c 24
 185 199 230 191 229 170 c 0
 229 158 194 165 171 166 c 0
 149 167 100 169 100 362 c 0xb8
EndSplineSet
Validated: 33
EndChar

StartChar: ADLAM_SMALL_LETTER_CHI
Encoding: 55 125239 71
Width: 742
VWidth: 0
Flags: HW
HStem: -18 94<226.209 518.36> 430 78<332.524 426.185>
VStem: 96 88<113.841 235.671> 552 70<128.711 261.901>
LayerCount: 2
Back
Fore
SplineSet
364 76 m 0
 535 76 552 52 552 152 c 0
 552 244 487 430 354 430 c 0
 312 430 183 314 184 219 c 0
 186 41 278 76 364 76 c 0
343 -18 m 0
 232 -16 96 40 96 158 c 0
 96 299 311 431 311 449 c 0
 311 527 124 481 124 522 c 0
 124 541 163 588 202 586 c 24
 289 582 324 508 411 508 c 0
 490 508 603 661 642 616 c 0
 673 581 489 504 489 489 c 0
 488 445 622 400 622 254 c 0
 622 126 565 39 475 -39 c 0
 462 -50 472 -3 456 0 c 24
 412 7 387 -19 343 -18 c 0
EndSplineSet
Validated: 33
EndChar

StartChar: ADLAM_SMALL_LETTER_HA
Encoding: 56 125240 72
Width: 769
VWidth: 0
Flags: HW
HStem: -16 51<235.901 499.66> 0 80<169.277 232.008>
VStem: 585 84<137.121 362.824>
LayerCount: 2
Back
Fore
SplineSet
669 244 m 0xa0
 669 59 513 -24 349 -16 c 0xa0
 253 -11 174 0 103 0 c 0
 89 0 151 84 200 80 c 0x60
 249 76 155 29 325 25 c 0
 553 20 549 41 553 223 c 0
 556 351 541 470 361 475 c 0
 257 478 261 452 214 453 c 0
 182 454 204 505 216 535 c 24
 230 571 240 609 279 610 c 24
 309 611 276 556 298 537 c 0
 314 523 525 552 607 453 c 0
 677 369 669 336 669 244 c 0xa0
EndSplineSet
Validated: 33
EndChar

StartChar: ADLAM_VOWEL_LENGTHENER
Encoding: 69 125253 73
Width: 574
VWidth: 0
Flags: HW
HStem: 534 74<170.394 408.801> 674 59<207.227 350.392>
VStem: 100 70<574 652.053>
LayerCount: 2
Back
Fore
SplineSet
165 534 m 0
 131 534 100 557 100 591 c 0
 100 681 224 733 316 733 c 0
 336 733 352 723 352 699 c 0
 352 681 337 650 325 653 c 2
 321 646 324 672 234 674 c 0
 205 675 170 664 170 636 c 0
 170 589 231 608 275 608 c 0
 329 608 360 607 414 607 c 24
 438 607 475 618 474 605 c 10
 461 546 l 26
 443 500 l 26
 414 546 l 18
 408 556 263 534 165 534 c 0
EndSplineSet
Validated: 33
EndChar

StartChar: ADLAM_GEMINATION_MARK
Encoding: 70 125254 74
Width: 698
VWidth: 0
Flags: HW
HStem: 656 79<166.203 538.655>
LayerCount: 2
Back
Fore
SplineSet
98 668 m 26
 98 668 126 729 148 734 c 0
 248 758 291 727 404 735 c 0
 417 736 598 750 598 750 c 26
 598 750 562 681 520 666 c 24
 459 642 439 660 352 656 c 0
 274 652 98 668 98 668 c 26
EndSplineSet
Validated: 33
EndChar

StartChar: ADLAM_HAMZA
Encoding: 71 125255 75
Width: 452
VWidth: 0
Flags: HW
HStem: 558 51<165.798 220.513> 715 38<177.11 226.466>
VStem: 99 53<622.609 687.625> 301 51<696.693 780.568>
LayerCount: 2
Back
Fore
SplineSet
170 558 m 0
 128 558 99 596 99 636 c 0
 99 697 200 753 219 753 c 0
 220 753 222 753 222 752 c 2
 223 753 223 752 224 752 c 0
 232 752 249 728 249 710 c 0
 249 696 240 672 235 672 c 0
 234 672 233 673 233 673 c 2
 233 672 232 671 232 671 c 0
 230 671 235 715 197 715 c 0
 172 715 152 695 152 670 c 0
 152 637 179 609 209 609 c 0
 242 609 301 660 301 713 c 0
 301 754 280 754 280 767 c 0
 280 786 310 799 319 799 c 0
 331 799 352 777 352 754 c 0
 352 693 222 558 170 558 c 0
EndSplineSet
Validated: 1
EndChar

StartChar: ADLAM_CONSONANT_MODIFIER
Encoding: 72 125256 76
Width: 489
VWidth: 0
Flags: HW
HStem: 530 104<215.5 271>
VStem: 102 287<713 761>
LayerCount: 2
Back
Fore
SplineSet
102 713 m 3
 102 726 132 766 157 766 c 3
 196 766 254 634 266 634 c 0
 276 634 362 767 384 767 c 0
 385 767 386 767 387 766 c 0
 388 765 389 763 389 761 c 0
 389 734 286 624 275 611 c 0
 267 601 251 530 222 530 c 3
 209 530 196 592 167 641 c 0
 148 674 102 682 102 713 c 3
EndSplineSet
Validated: 1
EndChar

StartChar: ADLAM_GEMINATE_CONSONANT_MOD
Encoding: 73 125257 77
Width: 599
VWidth: 0
Flags: HW
HStem: 504 261<202 204>
LayerCount: 2
Back
Fore
SplineSet
184 623 m 0
 151 650 103 684 103 688 c 0
 103 689 l 0
 103 727 148 760 166 760 c 3
 204 760 275 621 278 621 c 0
 284 621 377 765 407 765 c 0
 408 765 410 765 411 764 c 0
 414 762 415 759 415 756 c 0
 415 729 331 656 282 595 c 0
 260 568 253 508 230 508 c 0
 229 508 l 0
 202 510 217 595 184 623 c 0
302 510 m 0
 301 511 301 512 301 514 c 0
 301 535 346 600 380 645 c 0
 416 693 468 765 489 765 c 0
 490 765 491 765 492 764 c 0
 496 761 499 758 499 753 c 0
 499 728 441 677 412 637 c 0
 377 591 334 504 311 504 c 0
 308 504 304 506 302 510 c 0
EndSplineSet
Validated: 1
EndChar

StartChar: ADLAM_NUKTA
Encoding: 74 125258 78
Width: 290
VWidth: 0
Flags: HW
HStem: 594 128
VStem: 101 89<666.141 677>
LayerCount: 2
Back
Fore
SplineSet
105 594 m 26
 101 677 l 26
 186 722 l 18
 186 722 190 697 190 680 c 0
 190 673 190 669 188 666 c 0
 160 631 105 594 105 594 c 26
EndSplineSet
Validated: 1
EndChar

StartChar: NameMe.66
Encoding: 66 125250 79
Width: 611
VWidth: 0
Flags: W
HStem: 39 75<262.071 437.926> 565 67<217.771 405.5>
VStem: 98 92<158.851 506.676> 325 74<302.862 375.03> 435 75<311.566 471.091>
LayerCount: 2
Back
Fore
SplineSet
314 114 m 3
 367 114 435 225 435 348 c 3
 435 473 385 565 281 565 c 3
 198 565 190 507 190 421 c 0
 190 400 190 378 190 355 c 3
 190 203 192 154 221 154 c 3
 245 154 325 270 325 314 c 3
 325 397 232 418 232 418 c 26
 232 418 257 470 332 470 c 3
 378 470 399 419 399 373 c 3
 399 286 260 164 260 140 c 3
 260 116 291 114 314 114 c 3
270 39 m 3
 136 39 98 106 98 336 c 3
 98 552 152 632 358 632 c 3
 453 632 510 539 510 444 c 3
 510 247 367 114 367 114 c 26
 503 109 l 26
 502 27 l 26
 473 -12 l 26
 438 43 l 26
 438 43 336 39 270 39 c 3
EndSplineSet
Validated: 1
EndChar

StartChar: NameMe.65
Encoding: 65 125249 80
Width: 625
VWidth: 0
Flags: W
HStem: 135 69<136.278 395> 551 45<300.816 444.682>
VStem: 100 93<450.271 636.355> 461 64<-24.3304 169.821 291.059 526.386>
LayerCount: 2
Back
Fore
SplineSet
122 473 m 3
 122 605 100 598 100 616 c 3
 100 627 134 647 158 647 c 3
 194 647 198 601 193 567 c 0
 167 383 185 390 295 350 c 0
 349 330 455 291 455 291 c 10
 455 291 461 372 461 424 c 3
 461 524 455 551 375 551 c 3
 285 551 299 502 260 502 c 3
 247 502 250 491 250 528 c 3
 250 559 329 596 398 596 c 27
 484 596 525 510 525 424 c 27
 525 252 509 154 519 -16 c 0
 521 -46 459 -73 459 -63 c 3
 459 33 440 182 440 182 c 26
 395 137 l 26
 74 135 l 26
 74 135 78 165 88 180 c 24
 102 203 135 229 135 229 c 26
 135 229 146 203 158 204 c 0
 264 213 401 199 401 199 c 26
 468 197 350 275 260 295 c 0
 174 315 122 303 122 473 c 3
EndSplineSet
Validated: 33
EndChar

StartChar: NameMe.64
Encoding: 64 125248 81
Width: 703
VWidth: 0
Flags: W
HStem: -13 129<121.596 213.725> -9 75<233.046 451.336> 268 98<213.633 265.344> 605 88<221.161 329>
VStem: 125 80<370.336 583.597> 312 82<486.5 613.5> 498 82<95.3577 213.084>
LayerCount: 2
Back
Fore
SplineSet
312 498 m 3x3e
 312 546 298 605 250 605 c 3
 210 605 203 576 203 542 c 0
 203 525 205 506 205 490 c 3
 205 481 205 473 205 464 c 0
 205 412 207 366 238 366 c 3
 268 366 312 475 312 498 c 3x3e
125 458 m 3
 125 655 240 693 311 693 c 3
 347 693 394 635 394 592 c 3
 394 463 267 373 267 354 c 0
 267 353 267 352 267 352 c 0
 271 346 300 345 335 345 c 0
 396 345 476 350 476 350 c 10
 476 350 507 395 507 472 c 3
 507 586 481 550 481 569 c 3
 481 586 602 673 602 673 c 18
 602 673 603 655 603 628 c 0
 603 582 601 510 585 460 c 8
 568 405 505 371 505 343 c 3
 505 315 580 296 580 186 c 3
 580 83 512 -9 296 -9 c 3x7e
 254 -9 204 -13 162 -13 c 0
 110 -13 70 -8 70 20 c 3
 70 30 131 116 150 116 c 3xbe
 167 116 238 67 404 67 c 3
 429 67 448 66 461 66 c 0x7e
 498 66 498 72 498 117 c 3
 498 259 422 268 257 268 c 3
 153 268 125 284 125 458 c 3
EndSplineSet
Validated: 1
EndChar

StartChar: NameMe.63
Encoding: 63 125247 82
Width: 702
VWidth: 0
Flags: W
HStem: -27 86<226.564 430.089> -14 75<226.769 545.951> 543 71<352.169 446.477>
VStem: 145 72<67.2374 409.5> 288 74<197.115 323.541> 495 78<357.324 490.323>
LayerCount: 2
Back
Fore
SplineSet
288 254 m 3x3c
 288 362 434 434 434 434 c 26
 434 434 362 353 362 291 c 27
 362 251 359 193 327 193 c 3
 297 193 288 224 288 254 c 3x3c
434 -14 m 27x7c
 350 -14 303 -27 219 -27 c 27
 171 -27 135 15 135 63 c 27
 135 154 145 206 145 297 c 27
 145 368 137 406 137 477 c 27
 137 507 98 513 98 543 c 3
 98 569 132 587 166 587 c 3
 240 587 200 489 229 489 c 0
 256 489 329 614 417 614 c 27
 509 614 573 528 573 436 c 27
 573 316 392 186 392 186 c 26
 392 186 495 306 495 379 c 3
 495 464 475 543 374 543 c 3
 223 543 217 308 217 180 c 3
 217 74 223 59 282 59 c 0xbc
 307 59 342 61 389 61 c 3
 514 61 602 55 602 55 c 26
 546 -16 l 26
 546 -16 478 -14 434 -14 c 27x7c
EndSplineSet
Validated: 1
EndChar

StartChar: NameMe.62
Encoding: 62 125246 83
Width: 778
VWidth: 0
Flags: W
HStem: -45 78<224.585 322.493> 215 68<468.692 534>
VStem: 100 92<68.9666 284.905> 534 88<92.5967 215 285 432.541>
LayerCount: 2
Back
Fore
SplineSet
100 158 m 3
 100 498 453 602 620 602 c 3
 665 602 622 564 622 324 c 3
 622 35 675 59 675 16 c 3
 675 -11 651 -31 624 -31 c 27
 559 -31 534 41 534 106 c 27
 534 148 534 215 534 215 c 26
 370 197 l 26
 370 197 276 200 276 240 c 3
 276 259 320 311 335 311 c 3
 359 311 369 283 444 283 c 3
 481 283 538 285 538 285 c 26
 546 532 l 26
 546 532 192 600 192 215 c 3
 192 53 227 33 280 33 c 3
 305 33 335 5 335 0 c 3
 335 -28 287 -45 249 -45 c 3
 111 -45 100 65 100 158 c 3
EndSplineSet
Validated: 33
EndChar

StartChar: NameMe.61
Encoding: 61 125245 84
Width: 825
VWidth: 0
Flags: HW
HStem: 16 72<513.669 622.152> 621 70<349.133 598.768>
VStem: 99 92<87.6272 178.972> 156 80<422.039 509.634> 408 295<37 225> 422 74<439.543 558.916> 652 73<493.258 568.916>
LayerCount: 2
Back
Fore
SplineSet
652 510 m 27xc6
 652 571 582 621 541 621 c 3
 493 621 496 573 496 535 c 27
 496 497 502 438 502 438 c 26
 502 438 652 445 652 510 c 27xc6
265 -49 m 27
 177 -49 99 16 99 104 c 27xe8
 99 270 402 403 402 403 c 26
 402 403 425 470 422 530 c 24
 421 543 388 563 394 575 c 24
 406 602 452 615 452 615 c 26
 452 615 406 621 375 621 c 3
 311 621 236 554 236 475 c 27
 236 434 275 418 275 377 c 27
 275 359 252 354 234 354 c 27
 191 354 156 391 156 434 c 3
 156 555 336 691 506 691 c 27
 581 691 625 683 688 644 c 24
 721 624 725 600 725 561 c 3xd6
 725 426 528 420 508 377 c 0
 490 340 473 170 499 128 c 0
 521 92 553 88 598 88 c 27
 643 88 703 69 703 37 c 3
 703 -1 686 -48 656 -47 c 0
 633 -46 633 0 605 10 c 24
 561 26 531 16 484 16 c 3
 412 16 408 138 408 225 c 27
 408 276 410 305 412 356 c 17
 308 315 191 280 191 143 c 3xe8
 191 54 344 11 344 -27 c 3
 344 -60 298 -49 265 -49 c 27
EndSplineSet
Validated: 33
EndChar

StartChar: NameMe.60
Encoding: 60 125244 85
Width: 827
VWidth: 0
Flags: HW
HStem: 156 54<512 672.993> 578 40<228.797 330.524> 592 50<465.508 602.785>
VStem: 100 72<26.5289 443.98> 360 72<238.576 550.569> 629 53<376.015 506.752>
LayerCount: 2
Back
Fore
SplineSet
481 219 m 3xbc
 497 219 629 332 629 418 c 3
 629 511 558 592 506 592 c 3
 431 592 432 574 432 417 c 3
 432 337 432 219 481 219 c 3xbc
98 496 m 1048
178 -80 m 3
 76 -80 100 132 100 272 c 3
 100 477 170 618 311 618 c 3
 347 618 378 578 393 578 c 3xdc
 407 578 467 642 557 642 c 3xbc
 648 642 682 542 682 451 c 3
 682 337 512 210 512 210 c 26
 727 203 l 26
 673 135 l 26
 673 135 663 157 651 158 c 24
 574 165 529 150 452 156 c 0
 354 164 360 256 360 334 c 3
 360 449 384 578 272 578 c 3xdc
 137 578 172 392 172 264 c 27
 172 161 158 99 185 0 c 24
 194 -33 256 -51 256 -51 c 26
 256 -51 227 -80 178 -80 c 3
EndSplineSet
Validated: 33
EndChar

StartChar: NameMe.59
Encoding: 59 125243 86
Width: 674
VWidth: 0
Flags: HW
HStem: 133 70<296.872 424> 432 64<241.519 357.021> 645 66<249.055 452.397>
VStem: 100 82<228.768 373.84> 127 74<532.841 617.693> 480 94<153.859 318.804>
LayerCount: 2
Back
Fore
SplineSet
406 203 m 3xf4
 442 203 480 224 480 260 c 3
 480 320 380 432 278 432 c 27
 230 432 182 402 182 344 c 3
 182 257 319 203 406 203 c 3xf4
338 133 m 3
 247 133 100 169 100 291 c 3xf4
 100 414 203 425 203 442 c 3
 203 444 127 447 127 551 c 3
 127 666 283 711 367 711 c 3
 418 711 561 711 561 629 c 27
 561 582 539 516 518 516 c 0
 509 516 529 645 348 645 c 3
 287 645 201 658 201 594 c 3xec
 201 517 271 496 334 496 c 27
 464 496 574 386 574 270 c 3
 574 21 324 -88 324 -88 c 18
 324 -88 478 28 483 213 c 0
 485 278 443 133 338 133 c 3
EndSplineSet
Validated: 33
EndChar

StartChar: NameMe.58
Encoding: 58 125242 87
Width: 755
VWidth: 0
Flags: HW
HStem: -39 63<271.129 511.583> 242 74<249.381 446.653>
VStem: 554 84<50.8943 137.759>
LayerCount: 2
Back
Fore
SplineSet
327 -39 m 3
 186 -39 102 -32 102 10 c 3
 102 50 126 86 165 86 c 3
 204 86 217 39 397 28 c 0
 416 27 444 24 471 24 c 0
 514 24 554 32 554 70 c 3
 554 127 483 242 360 242 c 3
 338 242 316 242 296 242 c 0
 201 242 130 252 130 381 c 3
 130 444 128 545 128 545 c 26
 200 598 l 18
 201 599 202 599 203 599 c 0
 219 599 212 490 220 428 c 0
 233 333 261 316 297 316 c 0
 314 316 335 321 358 321 c 11
 407 321 434 303 483 303 c 0
 483 303 565 377 565 438 c 3
 565 551 515 526 515 549 c 3
 515 578 655 612 655 612 c 18
 655 612 655 610 655 607 c 0
 655 584 653 481 626 422 c 8
 597 359 509 311 509 295 c 3
 509 267 638 275 638 123 c 3
 638 -14 464 -39 327 -39 c 3
EndSplineSet
Validated: 1
EndChar

StartChar: ADLAM_SMALL_LETTER_QAAF
Encoding: 57 125241 88
Width: 834
VWidth: 0
Flags: HW
HStem: -2 65<125.507 367.342> 12 41<219.719 395.762> 191 42<263.8 364.068> 220 13<369.416 384.014> 465 63<247.005 335.586>
VStem: 118 57<322.892 414.525> 400 59<265.022 385.172> 406 74<106.023 219.997 239.15 261.289> 610 93<60.3014 264.952> 621 79<61.5051 130.501 303 322.996 382.053 634.866>
LayerCount: 2
Back
Fore
SplineSet
400 281 m 3x2e
 400 367 357 465 277 465 c 3
 226 465 175 432 175 381 c 3
 175 337 248 233 320 233 c 3
 330 233 339 233 347 233 c 0
 382 233 400 238 400 281 c 3x2e
297 191 m 0
 187 191 118 240 118 330 c 0
 118 446 224 522 341 528 c 16
 343 528 344 528 346 528 c 0
 428 528 461 424 466 348 c 0
 466 346 466 345 466 343 c 0
 466 321 459 287 459 272 c 0
 459 267 459 264 461 264 c 0
 463 264 l 0
 529 294 573 344 617 382 c 0
 618 383 619 392 619 406 c 0
 619 442 616 512 616 566 c 0
 616 607 617 639 625 639 c 8
 707 635 l 18
 707 635 700 451 700 268 c 0x2e40
 700 203 700 137 703 80 c 8
 704 66 734 57 734 57 c 26
 734 57 696 12 662 0 c 16
 660 -1 658 -1 656 -1 c 0
 639 -1 617 23 615 39 c 0
 611 69 610 100 610 132 c 0x2c80
 610 220 621 303 621 303 c 2
 621 304 l 0
 621 318 615 323 605 323 c 0
 567 323 479 249 479 234 c 0
 479 233 l 0
 479 229 480 225 480 221 c 0
 480 126 395 12 378 12 c 0x5d40
 373 1 286 -2 211 -2 c 0
 151 -2 97 0 97 0 c 2
 97 0 121 51 152 57 c 16
 173 61 195 63 217 63 c 0x8d40
 275 63 334 53 369 53 c 0
 381 53 391 54 396 57 c 0
 404 62 406 86 406 114 c 0
 406 155 401 202 401 202 c 2
 401 203 401 203 401 204 c 0
 401 216 397 220 390 220 c 0x5d40
 372 220 335 191 297 191 c 0
EndSplineSet
Validated: 1
EndChar

StartChar: uni1e900.dual
Encoding: 145 101 89
Width: 750
VWidth: 0
Flags: W
HStem: -15 62<-8.53125 755.253> 671 68<143.435 170.33>
VStem: 188.5 69<136.069 374.372> 583.5 80<126.601 320.44>
AnchorPoint: "MyAnchor1" 504.5 791 basechar 0
LayerCount: 2
Back
Fore
SplineSet
750 -15 m 7
 589 -15 161 -15 0 -15 c 3
 -26 -15 -26 51 0 51 c 3
 96 51 654 47 750 47 c 7
 764 47 780.066592757 -15 750 -15 c 7
420.5 -19 m 0
 328.5 -19 199.5 56 188.5 140 c 0
 186.5 155 174.5 671 167.5 671 c 1
 160.5 676 124.5 696 124.5 705 c 1
 124.5 705 175.5 739 203.5 739 c 0
 220.5 739 232.5 706 245.5 706 c 0
 257.5 706 257.5 399 257.5 218 c 0
 257.5 112 350.5 47 437.5 47 c 0
 512.5 47 583.5 96 583.5 211 c 0
 583.5 217 583.5 224 583.5 230 c 0
 576.5 376 470.5 418 385.5 418 c 0
 351.5 418 320.5 411 300.5 402 c 9
 393.5 480 l 17
 460.5 473 527.5 460 588.5 460 c 0
 613.5 460 638.5 465 667.5 476 c 9
 593.5 402 l 17
 593.5 401 l 0
 593.5 390 661.5 397 663.5 247 c 0
 663.5 246 663.5 245 663.5 244 c 0
 663.5 91 567.5 -19 420.5 -19 c 0
EndSplineSet
Validated: 37
EndChar

StartChar: uni1e900.right
Encoding: 146 97 90
Width: 726
VWidth: 0
Flags: W
HStem: -19 70<318.288 732.759> 671 68<119.435 146.33>
VStem: 164.5 69<136.069 374.372> 559.5 80<126.601 320.44>
AnchorPoint: "MyAnchor1" 480.5 791 basechar 0
LayerCount: 2
Back
Fore
SplineSet
727 -21 m 7
 566 -21 557.5 -19 396.5 -19 c 23
 369.68359375 -19 402.009765625 51 425 51 c 7
 521 51 625 51 721 51 c 7
 746.330078125 51 748 -21 727 -21 c 7
396.5 -19 m 0
 304.5 -19 175.5 56 164.5 140 c 0
 162.5 155 150.5 671 143.5 671 c 1
 136.5 676 100.5 696 100.5 705 c 1
 100.5 705 151.5 739 179.5 739 c 0
 196.5 739 208.5 706 221.5 706 c 0
 233.5 706 233.5 399 233.5 218 c 0
 233.5 112 326.5 47 413.5 47 c 0
 488.5 47 559.5 96 559.5 211 c 0
 559.5 217 559.5 224 559.5 230 c 0
 552.5 376 446.5 418 361.5 418 c 0
 327.5 418 296.5 411 276.5 402 c 9
 369.5 480 l 17
 436.5 473 503.5 460 564.5 460 c 0
 589.5 460 614.5 465 643.5 476 c 9
 569.5 402 l 17
 569.5 401 l 0
 569.5 390 637.5 397 639.5 247 c 0
 639.5 246 639.5 245 639.5 244 c 0
 639.5 91 543.5 -19 396.5 -19 c 0
EndSplineSet
Validated: 37
EndChar

StartChar: uni1e900.left
Encoding: 144 -1 91
Width: 750
VWidth: 0
Flags: W
HStem: -19 68<-8.20312 520.025> 671 68<143.435 170.33>
VStem: 188.5 69<136.069 374.372> 583.5 80<126.601 320.44>
AnchorPoint: "MyAnchor1" 504.5 791 basechar 0
LayerCount: 2
Back
Fore
SplineSet
421 -17 m 31
 191 -17 230 -15 0 -15 c 27
 -25 -15 -25 49 0 49 c 27
 148 49 231 49 379 49 c 27
 466 49 508 -17 421 -17 c 31
420.5 -19 m 0
 328.5 -19 199.5 56 188.5 140 c 0
 186.5 155 174.5 671 167.5 671 c 1
 160.5 676 124.5 696 124.5 705 c 1
 124.5 705 175.5 739 203.5 739 c 0
 220.5 739 232.5 706 245.5 706 c 0
 257.5 706 257.5 399 257.5 218 c 0
 257.5 112 350.5 47 437.5 47 c 0
 512.5 47 583.5 96 583.5 211 c 0
 583.5 217 583.5 224 583.5 230 c 0
 576.5 376 470.5 418 385.5 418 c 0
 351.5 418 320.5 411 300.5 402 c 9
 393.5 480 l 17
 460.5 473 527.5 460 588.5 460 c 0
 613.5 460 638.5 465 667.5 476 c 9
 593.5 402 l 17
 593.5 401 l 0
 593.5 390 661.5 397 663.5 247 c 0
 663.5 246 663.5 245 663.5 244 c 0
 663.5 91 567.5 -19 420.5 -19 c 0
EndSplineSet
Validated: 37
EndChar
